<?xml version="1.0" encoding="UTF-8"?>
<!DOCTYPE svg PUBLIC "-//W3C//DTD SVG 1.1//EN" "http://www.w3.org/Graphics/SVG/1.1/DTD/svg11.dtd">
<svg xmlns="http://www.w3.org/2000/svg" version="1.1" width="380px" height="380px" style="shape-rendering:geometricPrecision; text-rendering:geometricPrecision; image-rendering:optimizeQuality; fill-rule:evenodd; clip-rule:evenodd" xmlns:xlink="http://www.w3.org/1999/xlink">
<g><path style="opacity:0.141" fill="#4f4437" d="M 204.5,81.5 C 203.833,81.5 203.5,81.8333 203.5,82.5C 202.833,82.5 202.5,82.8333 202.5,83.5C 201.167,83.8333 201.167,84.1667 202.5,84.5C 200.882,86.316 198.882,87.6493 196.5,88.5C 196.631,87.7611 196.464,87.0944 196,86.5C 193.561,89.0591 190.895,91.3925 188,93.5C 187.458,90.9175 188.292,88.9175 190.5,87.5C 190.369,88.2389 190.536,88.9056 191,89.5C 198.038,81.2959 205.538,73.6293 213.5,66.5C 214.614,67.723 214.781,69.0563 214,70.5C 210.998,74.3338 207.831,78.0005 204.5,81.5 Z"/></g>
<g><path style="opacity:0.175" fill="#574c3f" d="M 190.5,87.5 C 191.411,85.0488 192.244,82.7154 193,80.5C 190.812,83.5672 188.645,86.5672 186.5,89.5C 187.352,86.7766 188.519,84.11 190,81.5C 191.264,79.393 193.097,78.393 195.5,78.5C 195.072,82.244 193.405,85.244 190.5,87.5 Z"/></g>
<g><path style="opacity:0.714" fill="#473c30" d="M 207.5,85.5 C 208.5,85.5 209.5,85.5 210.5,85.5C 210.028,88.8153 208.195,91.1486 205,92.5C 204.383,95.1764 205.216,95.843 207.5,94.5C 208.823,96.854 208.157,98.5207 205.5,99.5C 205.631,98.7611 205.464,98.0944 205,97.5C 204.163,99.0074 202.996,99.5074 201.5,99C 204.055,95.649 204.055,92.4823 201.5,89.5C 201.631,88.7611 201.464,88.0944 201,87.5C 199.729,88.8825 198.229,89.8825 196.5,90.5C 196.5,89.8333 196.5,89.1667 196.5,88.5C 198.882,87.6493 200.882,86.316 202.5,84.5C 202.5,84.1667 202.5,83.8333 202.5,83.5C 203.167,83.5 203.5,83.1667 203.5,82.5C 204.167,82.5 204.5,82.1667 204.5,81.5C 206.764,80.4187 208.931,79.0854 211,77.5C 211.667,78.8333 211.667,80.1667 211,81.5C 209.624,82.7051 208.458,84.0384 207.5,85.5 Z M 207.5,85.5 C 207.217,86.2891 206.717,86.9558 206,87.5C 205.472,86.184 205.972,85.5173 207.5,85.5 Z"/></g>
<g><path style="opacity:0.941" fill="#9e8f77" d="M 201.5,89.5 C 200.055,91.0627 198.389,92.396 196.5,93.5C 195.375,92.6522 195.375,91.6522 196.5,90.5C 198.229,89.8825 199.729,88.8825 201,87.5C 201.464,88.0944 201.631,88.7611 201.5,89.5 Z"/></g>
<g><path style="opacity:0.741" fill="#271c13" d="M 201.5,89.5 C 204.055,92.4823 204.055,95.649 201.5,99C 202.996,99.5074 204.163,99.0074 205,97.5C 205.464,98.0944 205.631,98.7611 205.5,99.5C 203.993,101.289 202.66,103.289 201.5,105.5C 202.631,106.604 203.465,106.271 204,104.5C 204.483,105.448 204.649,106.448 204.5,107.5C 203.833,107.833 203.167,108.167 202.5,108.5C 201.5,107.5 200.5,106.5 199.5,105.5C 199.598,102.752 198.598,102.086 196.5,103.5C 196.265,102.903 195.765,102.57 195,102.5C 193.989,103.056 193.156,103.722 192.5,104.5C 192.631,103.624 192.298,102.957 191.5,102.5C 189.814,103.857 188.148,105.19 186.5,106.5C 185.833,105.833 185.167,105.167 184.5,104.5C 186.674,104.25 188.341,103.25 189.5,101.5C 190.401,100.71 191.068,99.7095 191.5,98.5C 192.345,97.3285 193.011,95.9952 193.5,94.5C 194.791,94.7373 195.791,94.404 196.5,93.5C 198.389,92.396 200.055,91.0627 201.5,89.5 Z"/></g>
<g><path style="opacity:0.871" fill="#2d2219" d="M 190.5,87.5 C 188.292,88.9175 187.458,90.9175 188,93.5C 190.895,91.3925 193.561,89.0591 196,86.5C 196.464,87.0944 196.631,87.7611 196.5,88.5C 196.5,89.1667 196.5,89.8333 196.5,90.5C 195.375,91.6522 195.375,92.6522 196.5,93.5C 195.791,94.404 194.791,94.7373 193.5,94.5C 194.85,93.3501 194.684,92.6834 193,92.5C 191.541,92.8082 190.374,93.4749 189.5,94.5C 188.5,95.1667 187.5,95.8333 186.5,96.5C 185.549,95.0813 185.216,93.4147 185.5,91.5C 185.328,90.5084 185.662,89.8417 186.5,89.5C 188.645,86.5672 190.812,83.5672 193,80.5C 192.244,82.7154 191.411,85.0488 190.5,87.5 Z"/></g>
<g><path style="opacity:0.322" fill="#796b59" d="M 193.5,94.5 C 193.011,95.9952 192.345,97.3285 191.5,98.5C 191.843,96.5168 191.176,95.1834 189.5,94.5C 190.374,93.4749 191.541,92.8082 193,92.5C 194.684,92.6834 194.85,93.3501 193.5,94.5 Z"/></g>
<g><path style="opacity:0.912" fill="#43382c" d="M 185.5,91.5 C 185.216,93.4147 185.549,95.0813 186.5,96.5C 185.89,97.391 185.557,98.391 185.5,99.5C 185.167,99.5 184.833,99.5 184.5,99.5C 183.791,98.596 182.791,98.2627 181.5,98.5C 181.5,103.167 181.5,107.833 181.5,112.5C 181.167,112.5 180.833,112.5 180.5,112.5C 181.01,109.612 180.344,107.279 178.5,105.5C 178.657,104.127 178.49,102.793 178,101.5C 176.348,104.508 174.848,107.508 173.5,110.5C 173.687,105.461 175.52,101.128 179,97.5C 179.988,94.5755 180.654,91.5755 181,88.5C 181.71,87.0267 182.876,86.3601 184.5,86.5C 184.216,88.4147 184.549,90.0813 185.5,91.5 Z"/></g>
<g><path style="opacity:0.988" fill="#d7c7a9" d="M 189.5,94.5 C 191.176,95.1834 191.843,96.5168 191.5,98.5C 191.068,99.7095 190.401,100.71 189.5,101.5C 187.847,101.34 186.514,100.674 185.5,99.5C 185.557,98.391 185.89,97.391 186.5,96.5C 187.5,95.8333 188.5,95.1667 189.5,94.5 Z"/></g>
<g><path style="opacity:0.988" fill="#c2b297" d="M 199.5,93.5 C 201.344,94.2039 201.844,95.5372 201,97.5C 199.611,99.2273 197.944,100.561 196,101.5C 195.5,101.167 195,100.833 194.5,100.5C 195.931,97.9613 197.597,95.6279 199.5,93.5 Z"/></g>
<g><path style="opacity:0.927" fill="#1d1208" d="M 184.5,99.5 C 183.28,101.284 183.28,102.95 184.5,104.5C 185.167,105.167 185.833,105.833 186.5,106.5C 185.962,108.117 185.629,109.784 185.5,111.5C 184.733,115.245 184.733,118.245 185.5,120.5C 184.662,120.842 184.328,121.508 184.5,122.5C 183.999,124.246 183.332,125.246 182.5,125.5C 182.414,121.143 182.08,116.81 181.5,112.5C 181.5,107.833 181.5,103.167 181.5,98.5C 182.791,98.2627 183.791,98.596 184.5,99.5 Z"/></g>
<g><path style="opacity:0.408" fill="#726553" d="M 184.5,99.5 C 184.833,99.5 185.167,99.5 185.5,99.5C 186.514,100.674 187.847,101.34 189.5,101.5C 188.341,103.25 186.674,104.25 184.5,104.5C 183.28,102.95 183.28,101.284 184.5,99.5 Z"/></g>
<g><path style="opacity:0.2" fill="#574c40" d="M 205.5,99.5 C 205.586,100.496 205.252,101.329 204.5,102C 208.385,103.754 208.385,105.587 204.5,107.5C 204.649,106.448 204.483,105.448 204,104.5C 203.465,106.271 202.631,106.604 201.5,105.5C 202.66,103.289 203.993,101.289 205.5,99.5 Z"/></g>
<g><path style="opacity:0.322" fill="#695d4c" d="M 199.5,105.5 C 198.89,106.391 198.557,107.391 198.5,108.5C 197.193,109.153 195.86,109.82 194.5,110.5C 194.167,109.833 193.833,109.167 193.5,108.5C 194.092,106.577 195.092,104.911 196.5,103.5C 198.598,102.086 199.598,102.752 199.5,105.5 Z"/></g>
<g><path style="opacity:0.273" fill="#5f5345" d="M 192.5,104.5 C 191.956,108.511 190.289,111.844 187.5,114.5C 188.928,111.988 189.428,109.322 189,106.5C 187.811,108.233 186.644,109.9 185.5,111.5C 185.629,109.784 185.962,108.117 186.5,106.5C 188.148,105.19 189.814,103.857 191.5,102.5C 192.298,102.957 192.631,103.624 192.5,104.5 Z"/></g>
<g><path style="opacity:0.958" fill="#2d221a" d="M 196.5,103.5 C 195.092,104.911 194.092,106.577 193.5,108.5C 193.833,109.167 194.167,109.833 194.5,110.5C 195.86,109.82 197.193,109.153 198.5,108.5C 199.091,109.151 199.757,109.818 200.5,110.5C 200.376,111.107 200.043,111.44 199.5,111.5C 198.038,110.529 196.705,110.862 195.5,112.5C 192.206,115.156 188.873,117.822 185.5,120.5C 184.733,118.245 184.733,115.245 185.5,111.5C 185.285,113.179 185.952,114.179 187.5,114.5C 190.289,111.844 191.956,108.511 192.5,104.5C 193.156,103.722 193.989,103.056 195,102.5C 195.765,102.57 196.265,102.903 196.5,103.5 Z"/></g>
<g><path style="opacity:0.909" fill="#22180f" d="M 178.5,105.5 C 178.5,105.833 178.5,106.167 178.5,106.5C 178.138,111.421 177.138,116.087 175.5,120.5C 174.629,117.888 173.963,115.221 173.5,112.5C 173.5,111.833 173.5,111.167 173.5,110.5C 174.848,107.508 176.348,104.508 178,101.5C 178.49,102.793 178.657,104.127 178.5,105.5 Z"/></g>
<g><path style="opacity:0.024" fill="#52483c" d="M 204.5,107.5 C 204.229,109.821 204.896,111.821 206.5,113.5C 206.145,114.522 205.478,115.189 204.5,115.5C 204.631,114.761 204.464,114.094 204,113.5C 203,114.5 202,115.5 201,116.5C 201.359,113.888 201.859,111.221 202.5,108.5C 203.167,108.167 203.833,107.833 204.5,107.5 Z"/></g>
<g><path style="opacity:0.2" fill="#52473b" d="M 173.5,112.5 C 173.963,115.221 174.629,117.888 175.5,120.5C 175.5,121.5 175.5,122.5 175.5,123.5C 174.351,123.791 173.684,124.624 173.5,126C 174.033,128.226 174.7,130.393 175.5,132.5C 174.21,131.942 173.377,130.942 173,129.5C 172.814,125.484 172.814,121.484 173,117.5C 172.333,114.833 171.667,114.833 171,117.5C 170.667,121.5 170.333,125.5 170,129.5C 169.683,127.699 169.016,127.366 168,128.5C 167.274,136.859 166.441,145.192 165.5,153.5C 164.194,154.467 163.527,155.801 163.5,157.5C 162.861,156.903 162.528,156.07 162.5,155C 163.821,150.125 164.988,145.291 166,140.5C 166.333,136.167 166.667,131.833 167,127.5C 167.414,127.043 167.914,126.709 168.5,126.5C 169.327,122.541 169.827,118.541 170,114.5C 171.113,113.695 172.279,113.028 173.5,112.5 Z"/></g>
<g><path style="opacity:0.957" fill="#22170e" d="M 199.5,105.5 C 200.5,106.5 201.5,107.5 202.5,108.5C 201.859,111.221 201.359,113.888 201,116.5C 202,115.5 203,114.5 204,113.5C 204.464,114.094 204.631,114.761 204.5,115.5C 201.799,118.235 200.132,121.569 199.5,125.5C 198.094,125.027 197.427,124.027 197.5,122.5C 197.631,121.624 197.298,120.957 196.5,120.5C 194.739,121.035 193.406,122.035 192.5,123.5C 191.596,122.791 191.263,121.791 191.5,120.5C 196.228,119.401 198.895,116.401 199.5,111.5C 200.043,111.44 200.376,111.107 200.5,110.5C 199.757,109.818 199.091,109.151 198.5,108.5C 198.557,107.391 198.89,106.391 199.5,105.5 Z"/></g>
<g><path style="opacity:1" fill="#43382d" d="M 178.5,106.5 C 178.112,111.628 178.612,116.628 180,121.5C 180.498,118.518 180.665,115.518 180.5,112.5C 180.833,112.5 181.167,112.5 181.5,112.5C 182.08,116.81 182.414,121.143 182.5,125.5C 180.807,124.525 179.307,123.192 178,121.5C 177.667,121.833 177.333,122.167 177,122.5C 177.773,125.701 178.273,129.035 178.5,132.5C 177.331,129.659 176.331,126.659 175.5,123.5C 175.5,122.5 175.5,121.5 175.5,120.5C 177.138,116.087 178.138,111.421 178.5,106.5 Z"/></g>
<g><path style="opacity:0.396" fill="#4a3f33" d="M 199.5,111.5 C 198.895,116.401 196.228,119.401 191.5,120.5C 191.263,121.791 191.596,122.791 192.5,123.5C 191.833,124.833 190.833,125.833 189.5,126.5C 190.087,125.233 190.087,124.233 189.5,123.5C 188.086,124.624 186.586,125.624 185,126.5C 184.51,125.207 184.343,123.873 184.5,122.5C 184.328,121.508 184.662,120.842 185.5,120.5C 185.343,121.873 185.51,123.207 186,124.5C 188.264,121.567 191.098,119.4 194.5,118C 195.872,116.758 196.872,115.258 197.5,113.5C 197.043,112.702 196.376,112.369 195.5,112.5C 196.705,110.862 198.038,110.529 199.5,111.5 Z"/></g>
<g><path style="opacity:0.25" fill="#4d4338" d="M 204.5,115.5 C 203.788,117.928 202.788,120.261 201.5,122.5C 202.391,123.59 203.391,123.59 204.5,122.5C 205.241,125.706 204.241,128.373 201.5,130.5C 201.678,129.305 202.011,128.138 202.5,127C 201.579,125.936 200.579,125.436 199.5,125.5C 200.132,121.569 201.799,118.235 204.5,115.5 Z"/></g>
<g><path style="opacity:0.502" fill="#504639" d="M 197.5,122.5 C 196.639,127.697 193.639,131.03 188.5,132.5C 191.694,130.464 194.027,127.631 195.5,124C 194.552,123.517 193.552,123.351 192.5,123.5C 193.406,122.035 194.739,121.035 196.5,120.5C 197.298,120.957 197.631,121.624 197.5,122.5 Z"/></g>
<g><path style="opacity:1" fill="#271d14" d="M 197.5,122.5 C 197.427,124.027 198.094,125.027 199.5,125.5C 200.579,125.436 201.579,125.936 202.5,127C 202.011,128.138 201.678,129.305 201.5,130.5C 200.191,131.624 199.525,133.124 199.5,135C 199.539,136.894 200.206,137.894 201.5,138C 200.588,140.317 199.588,142.484 198.5,144.5C 196.818,143.173 195.485,141.506 194.5,139.5C 195.868,136.574 196.701,133.574 197,130.5C 195.333,131.733 193.833,133.067 192.5,134.5C 189.192,137.471 185.859,140.471 182.5,143.5C 182.92,141.906 183.586,140.406 184.5,139C 183.944,137.989 183.278,137.156 182.5,136.5C 183.167,135.167 183.833,133.833 184.5,132.5C 184.369,133.239 184.536,133.906 185,134.5C 186.113,133.695 187.279,133.028 188.5,132.5C 193.639,131.03 196.639,127.697 197.5,122.5 Z"/></g>
<g><path style="opacity:0.886" fill="#2d2219" d="M 175.5,132.5 C 176.652,133.625 177.652,133.625 178.5,132.5C 179.833,135.167 179.833,137.833 178.5,140.5C 178.631,139.761 178.464,139.094 178,138.5C 177.667,140.833 177.333,143.167 177,145.5C 174.121,144.091 172.455,141.757 172,138.5C 171.333,140.167 171.333,141.833 172,143.5C 173.481,144.471 174.315,145.804 174.5,147.5C 170.48,143.559 169.48,144.559 171.5,150.5C 169.337,149.719 169.004,150.553 170.5,153C 168.667,153.5 167.5,154.667 167,156.5C 166.768,155.263 166.268,154.263 165.5,153.5C 166.441,145.192 167.274,136.859 168,128.5C 169.016,127.366 169.683,127.699 170,129.5C 170.333,125.5 170.667,121.5 171,117.5C 171.667,114.833 172.333,114.833 173,117.5C 172.814,121.484 172.814,125.484 173,129.5C 173.377,130.942 174.21,131.942 175.5,132.5 Z M 172.5,135.5 C 175.443,137.048 176.443,139.382 175.5,142.5C 173.918,140.423 172.918,138.09 172.5,135.5 Z"/></g>
<g><path style="opacity:0.08" fill="#544a3f" d="M 257.5,137.5 C 255.645,137.728 254.812,137.061 255,135.5C 257.808,134.14 258.641,134.807 257.5,137.5 Z"/></g>
<g><path style="opacity:0.741" fill="#24180e" d="M 182.5,125.5 C 183.332,125.246 183.999,124.246 184.5,122.5C 184.343,123.873 184.51,125.207 185,126.5C 186.586,125.624 188.086,124.624 189.5,123.5C 190.087,124.233 190.087,125.233 189.5,126.5C 187.823,128.54 186.156,130.54 184.5,132.5C 183.833,133.833 183.167,135.167 182.5,136.5C 181.883,136.389 181.383,136.056 181,135.5C 180.808,137.577 180.308,139.577 179.5,141.5C 178.893,141.376 178.56,141.043 178.5,140.5C 179.833,137.833 179.833,135.167 178.5,132.5C 178.273,129.035 177.773,125.701 177,122.5C 177.333,122.167 177.667,121.833 178,121.5C 179.307,123.192 180.807,124.525 182.5,125.5 Z"/></g>
<g><path style="opacity:0.839" fill="#6f6352" d="M 194.5,139.5 C 193.518,140.141 192.518,140.807 191.5,141.5C 190.893,141.376 190.56,141.043 190.5,140.5C 191.122,139.373 191.955,138.373 193,137.5C 193.74,136.251 193.573,135.251 192.5,134.5C 193.833,133.067 195.333,131.733 197,130.5C 196.701,133.574 195.868,136.574 194.5,139.5 Z"/></g>
<g><path style="opacity:0.347" fill="#665a4b" d="M 268.5,137.5 C 268.062,137.565 267.728,137.399 267.5,137C 268.833,136.333 270.167,135.667 271.5,135C 266.728,136.037 262.061,137.704 257.5,140C 259.167,140.333 260.833,140.667 262.5,141C 262.167,141.333 261.833,141.667 261.5,142C 262.756,142.417 263.423,143.25 263.5,144.5C 261.213,144.724 259.047,145.391 257,146.5C 255.437,145.898 255.604,145.065 257.5,144C 255.519,143.395 255.185,142.395 256.5,141C 254.115,141.011 251.782,141.511 249.5,142.5C 248.167,142.167 246.833,141.833 245.5,141.5C 249.582,140.377 253.582,139.044 257.5,137.5C 264.807,134.851 272.14,132.184 279.5,129.5C 281.569,129.824 281.902,130.658 280.5,132C 276.598,134.119 272.598,135.952 268.5,137.5 Z"/></g>
<g><path style="opacity:0.235" fill="#4c4236" d="M 149.5,189.5 C 149.5,191.167 149.5,192.833 149.5,194.5C 148.527,192.052 148.194,189.385 148.5,186.5C 148.111,172.396 149.111,158.396 151.5,144.5C 151.333,143.833 151.167,143.167 151,142.5C 149.16,149.9 147.66,157.234 146.5,164.5C 146.686,156.034 147.852,147.701 150,139.5C 151.276,134.741 152.443,134.574 153.5,139C 150.864,155.731 149.531,172.564 149.5,189.5 Z"/></g>
<g><path style="opacity:0.333" fill="#4f4438" d="M 201.5,130.5 C 201.579,132.666 202.246,134.666 203.5,136.5C 202.166,142.068 201.166,147.568 200.5,153C 202.754,156.861 202.42,160.694 199.5,164.5C 201.078,167.25 200.745,169.583 198.5,171.5C 198.678,170.305 199.011,169.138 199.5,168C 198.833,167.333 198.167,166.667 197.5,166C 198.577,163.117 199.41,160.283 200,157.5C 199.184,158.823 198.017,159.489 196.5,159.5C 197.455,157.254 198.122,154.921 198.5,152.5C 199.53,149.896 199.53,147.229 198.5,144.5C 199.588,142.484 200.588,140.317 201.5,138C 200.206,137.894 199.539,136.894 199.5,135C 199.525,133.124 200.191,131.624 201.5,130.5 Z"/></g>
<g><path style="opacity:1" fill="#2a1f16" d="M 194.5,139.5 C 195.485,141.506 196.818,143.173 198.5,144.5C 199.53,147.229 199.53,149.896 198.5,152.5C 197.761,152.631 197.094,152.464 196.5,152C 195.915,150.698 195.249,149.531 194.5,148.5C 195.052,146.669 195.052,145.003 194.5,143.5C 191.348,145.052 188.682,147.052 186.5,149.5C 185.205,150.488 183.872,151.488 182.5,152.5C 182.096,151.244 181.429,150.077 180.5,149C 180.954,146.97 181.62,145.137 182.5,143.5C 182.281,144.675 182.614,145.675 183.5,146.5C 185.853,144.477 188.186,142.477 190.5,140.5C 190.56,141.043 190.893,141.376 191.5,141.5C 192.518,140.807 193.518,140.141 194.5,139.5 Z M 191.5,146.5 C 194.001,146.511 194.168,147.178 192,148.5C 191.536,147.906 191.369,147.239 191.5,146.5 Z"/></g>
<g><path style="opacity:0.431" fill="#5c5143" d="M 268.5,137.5 C 266.981,138.41 265.315,139.243 263.5,140C 265.723,140.652 266.89,142.152 267,144.5C 272.924,140.116 279.424,137.283 286.5,136C 278.911,141.378 271.411,146.878 264,152.5C 263.333,153.167 263.333,153.833 264,154.5C 266.934,152.233 270.101,151.566 273.5,152.5C 268.409,155.423 263.742,158.923 259.5,163C 260.938,163.219 262.271,163.719 263.5,164.5C 262.395,166.611 260.729,167.945 258.5,168.5C 259.85,167.35 259.684,166.683 258,166.5C 255.95,167.791 253.783,168.291 251.5,168C 252.416,167.722 253.082,167.222 253.5,166.5C 256.306,162.863 259.639,159.696 263.5,157C 260.84,157.476 258.174,158.31 255.5,159.5C 254.479,158.998 254.312,158.332 255,157.5C 256.667,155.372 258.834,154.039 261.5,153.5C 262.193,152.482 262.859,151.482 263.5,150.5C 264.931,149.554 266.264,148.388 267.5,147C 265.833,146.667 264.167,146.333 262.5,146C 263.056,145.617 263.389,145.117 263.5,144.5C 263.423,143.25 262.756,142.417 261.5,142C 261.833,141.667 262.167,141.333 262.5,141C 260.833,140.667 259.167,140.333 257.5,140C 262.061,137.704 266.728,136.037 271.5,135C 270.167,135.667 268.833,136.333 267.5,137C 267.728,137.399 268.062,137.565 268.5,137.5 Z"/></g>
<g><path style="opacity:1" fill="#20150b" d="M 182.5,136.5 C 183.278,137.156 183.944,137.989 184.5,139C 183.586,140.406 182.92,141.906 182.5,143.5C 181.62,145.137 180.954,146.97 180.5,149C 181.429,150.077 182.096,151.244 182.5,152.5C 179.151,151.831 176.484,150.164 174.5,147.5C 174.315,145.804 173.481,144.471 172,143.5C 171.333,141.833 171.333,140.167 172,138.5C 172.455,141.757 174.121,144.091 177,145.5C 177.333,143.167 177.667,140.833 178,138.5C 178.464,139.094 178.631,139.761 178.5,140.5C 178.56,141.043 178.893,141.376 179.5,141.5C 180.308,139.577 180.808,137.577 181,135.5C 181.383,136.056 181.883,136.389 182.5,136.5 Z"/></g>
<g><path style="opacity:0.08" fill="#5b4f42" d="M 194.5,148.5 C 192.5,152.5 189.5,155.5 185.5,157.5C 184.5,157.5 183.5,157.5 182.5,157.5C 183.869,153.813 186.535,152.147 190.5,152.5C 190.5,151.5 190.5,150.5 190.5,149.5C 189.167,149.5 187.833,149.5 186.5,149.5C 188.682,147.052 191.348,145.052 194.5,143.5C 195.052,145.003 195.052,146.669 194.5,148.5 Z M 191.5,146.5 C 191.369,147.239 191.536,147.906 192,148.5C 194.168,147.178 194.001,146.511 191.5,146.5 Z"/></g>
<g><path style="opacity:0.314" fill="#4b4033" d="M 245.5,141.5 C 246.833,141.833 248.167,142.167 249.5,142.5C 245.476,145.118 245.809,145.785 250.5,144.5C 250.5,145.167 250.5,145.833 250.5,146.5C 246.5,146.833 246.5,147.167 250.5,147.5C 248.833,148.167 247.167,148.833 245.5,149.5C 245.167,149.5 244.833,149.5 244.5,149.5C 244.881,147.058 244.214,146.391 242.5,147.5C 241.833,146.833 241.167,146.167 240.5,145.5C 237.486,148.246 234.486,150.913 231.5,153.5C 234.619,147.716 239.285,143.716 245.5,141.5 Z"/></g>
<g><path style="opacity:0.949" fill="#2a1e14" d="M 244.5,149.5 C 243.334,151.166 243.334,152.833 244.5,154.5C 246.243,152.962 248.243,151.962 250.5,151.5C 250.5,152.167 250.5,152.833 250.5,153.5C 247.669,154.079 245.336,155.412 243.5,157.5C 241.938,157.733 240.605,158.4 239.5,159.5C 239.5,157.833 239.5,156.167 239.5,154.5C 241.544,147.559 240.377,146.893 236,152.5C 231.853,157.126 229.02,162.459 227.5,168.5C 226.258,170.346 226.591,170.679 228.5,169.5C 228.443,170.609 228.11,171.609 227.5,172.5C 225.026,174.898 223.692,177.898 223.5,181.5C 225.685,181.296 227.685,180.63 229.5,179.5C 228.521,181.145 227.188,182.479 225.5,183.5C 225.624,184.107 225.957,184.44 226.5,184.5C 225.841,187.408 225.007,187.742 224,185.5C 223.764,187.119 222.931,188.119 221.5,188.5C 221.5,186.5 221.5,184.5 221.5,182.5C 222.8,179.976 222.8,177.309 221.5,174.5C 220.817,174.863 220.15,175.196 219.5,175.5C 218.314,174.039 218.314,172.705 219.5,171.5C 219.81,172.738 220.31,172.738 221,171.5C 222.588,167.328 224.421,163.328 226.5,159.5C 227.419,156.911 229.086,154.911 231.5,153.5C 234.486,150.913 237.486,148.246 240.5,145.5C 241.167,146.167 241.833,146.833 242.5,147.5C 244.214,146.391 244.881,147.058 244.5,149.5 Z"/></g>
<g><path style="opacity:0.918" fill="#30251a" d="M 263.5,144.5 C 263.389,145.117 263.056,145.617 262.5,146C 264.167,146.333 265.833,146.667 267.5,147C 266.264,148.388 264.931,149.554 263.5,150.5C 263.5,149.5 263.5,148.5 263.5,147.5C 260.794,147.575 258.127,147.908 255.5,148.5C 254.391,148.557 253.391,148.89 252.5,149.5C 253.038,147.883 253.371,146.216 253.5,144.5C 252.5,144.5 251.5,144.5 250.5,144.5C 245.809,145.785 245.476,145.118 249.5,142.5C 251.782,141.511 254.115,141.011 256.5,141C 255.185,142.395 255.519,143.395 257.5,144C 255.604,145.065 255.437,145.898 257,146.5C 259.047,145.391 261.213,144.724 263.5,144.5 Z"/></g>
<g><path style="opacity:0.639" fill="#9a8a73" d="M 250.5,144.5 C 251.5,144.5 252.5,144.5 253.5,144.5C 253.371,146.216 253.038,147.883 252.5,149.5C 251.833,150.167 251.167,150.833 250.5,151.5C 249.448,149.744 247.781,149.077 245.5,149.5C 247.167,148.833 248.833,148.167 250.5,147.5C 250.5,147.167 250.5,146.833 250.5,146.5C 250.5,145.833 250.5,145.167 250.5,144.5 Z"/></g>
<g><path style="opacity:0.273" fill="#80715e" d="M 263.5,150.5 C 260.785,152.123 257.785,152.79 254.5,152.5C 254.433,151.041 254.766,149.708 255.5,148.5C 258.127,147.908 260.794,147.575 263.5,147.5C 263.5,148.5 263.5,149.5 263.5,150.5 Z"/></g>
<g><path style="opacity:1" fill="#d9c9ab" d="M 244.5,149.5 C 244.833,149.5 245.167,149.5 245.5,149.5C 247.781,149.077 249.448,149.744 250.5,151.5C 248.243,151.962 246.243,152.962 244.5,154.5C 243.334,152.833 243.334,151.166 244.5,149.5 Z"/></g>
<g><path style="opacity:0.863" fill="#3a3025" d="M 174.5,147.5 C 176.484,150.164 179.151,151.831 182.5,152.5C 181.972,153.721 181.305,154.887 180.5,156C 181.044,156.717 181.711,157.217 182.5,157.5C 182.631,158.239 182.464,158.906 182,159.5C 179.631,158.073 179.131,156.239 180.5,154C 179.552,153.517 178.552,153.351 177.5,153.5C 177.665,156.85 177.498,160.183 177,163.5C 175.956,162.377 175.29,161.044 175,159.5C 174.506,161.134 174.34,162.801 174.5,164.5C 174.631,165.239 174.464,165.906 174,166.5C 170.521,163.5 167.521,160.167 165,156.5C 164.289,158.899 164.456,161.232 165.5,163.5C 164.726,164.711 163.893,164.711 163,163.5C 162.224,170.485 163.058,177.152 165.5,183.5C 165.5,185.167 165.5,186.833 165.5,188.5C 161.352,178.391 160.685,168.058 163.5,157.5C 163.527,155.801 164.194,154.467 165.5,153.5C 166.268,154.263 166.768,155.263 167,156.5C 167.5,154.667 168.667,153.5 170.5,153C 169.004,150.553 169.337,149.719 171.5,150.5C 173.451,151.716 174.951,153.382 176,155.5C 175.84,152.841 175.34,150.174 174.5,147.5 Z M 169.5,154.5 C 172.134,156.899 173.301,159.899 173,163.5C 169.825,161.049 168.659,158.049 169.5,154.5 Z"/></g>
<g><path style="opacity:0.949" fill="#22170d" d="M 194.5,148.5 C 195.249,149.531 195.915,150.698 196.5,152C 197.094,152.464 197.761,152.631 198.5,152.5C 198.122,154.921 197.455,157.254 196.5,159.5C 194.926,159.937 193.759,160.937 193,162.5C 192.601,162.272 192.435,161.938 192.5,161.5C 193.755,159.481 194.089,157.481 193.5,155.5C 191.22,156.702 188.886,157.702 186.5,158.5C 186.5,157.833 186.167,157.5 185.5,157.5C 189.5,155.5 192.5,152.5 194.5,148.5 Z"/></g>
<g><path style="opacity:0.749" fill="#ad9d84" d="M 250.5,153.5 C 252.103,153.312 253.437,153.812 254.5,155C 253.29,156.039 252.29,157.206 251.5,158.5C 250.609,159.11 249.609,159.443 248.5,159.5C 249.538,157.892 248.871,156.892 246.5,156.5C 245.583,157.127 244.583,157.461 243.5,157.5C 245.336,155.412 247.669,154.079 250.5,153.5 Z"/></g>
<g><path style="opacity:1" fill="#decfb0" d="M 248.5,159.5 C 245.655,161.023 242.655,162.023 239.5,162.5C 239.5,161.5 239.5,160.5 239.5,159.5C 240.605,158.4 241.938,157.733 243.5,157.5C 244.583,157.461 245.583,157.127 246.5,156.5C 248.871,156.892 249.538,157.892 248.5,159.5 Z"/></g>
<g><path style="opacity:0.988" fill="#d2c2a4" d="M 239.5,154.5 C 236.624,160.049 232.624,164.716 227.5,168.5C 229.02,162.459 231.853,157.126 236,152.5C 240.377,146.893 241.544,147.559 239.5,154.5 Z"/></g>
<g><path style="opacity:0.427" fill="#5a4f41" d="M 217.5,150.5 C 217.649,149.448 217.483,148.448 217,147.5C 213.796,152.597 210.629,157.597 207.5,162.5C 209.288,157.193 211.788,152.193 215,147.5C 216.494,146.253 217.994,146.253 219.5,147.5C 219.058,148.739 218.391,149.739 217.5,150.5 Z"/></g>
<g><path style="opacity:0.827" fill="#2e2319" d="M 217.5,150.5 C 212.391,157.046 208.558,164.38 206,172.5C 205.111,173.888 204.611,173.722 204.5,172C 206.007,168.979 207.007,165.812 207.5,162.5C 210.629,157.597 213.796,152.597 217,147.5C 217.483,148.448 217.649,149.448 217.5,150.5 Z"/></g>
<g><path style="opacity:1" fill="#241a11" d="M 255.5,148.5 C 254.766,149.708 254.433,151.041 254.5,152.5C 257.785,152.79 260.785,152.123 263.5,150.5C 262.859,151.482 262.193,152.482 261.5,153.5C 258.834,154.039 256.667,155.372 255,157.5C 254.312,158.332 254.479,158.998 255.5,159.5C 258.174,158.31 260.84,157.476 263.5,157C 259.639,159.696 256.306,162.863 253.5,166.5C 252.833,164.833 252.167,163.167 251.5,161.5C 251.5,160.5 251.5,159.5 251.5,158.5C 252.29,157.206 253.29,156.039 254.5,155C 253.437,153.812 252.103,153.312 250.5,153.5C 250.5,152.833 250.5,152.167 250.5,151.5C 251.167,150.833 251.833,150.167 252.5,149.5C 253.391,148.89 254.391,148.557 255.5,148.5 Z"/></g>
<g><path style="opacity:1" fill="#241910" d="M 198.5,171.5 C 197.696,173.189 196.696,174.855 195.5,176.5C 197.435,177.213 197.768,178.213 196.5,179.5C 194.765,178.943 193.098,178.61 191.5,178.5C 191.631,177.761 191.464,177.094 191,176.5C 188.821,177.84 188.321,177.507 189.5,175.5C 192.824,172.855 193.824,169.522 192.5,165.5C 191.893,165.624 191.56,165.957 191.5,166.5C 191.5,167.167 191.167,167.5 190.5,167.5C 187.46,168.68 184.794,170.347 182.5,172.5C 182.5,173.167 182.167,173.5 181.5,173.5C 180.504,173.414 179.671,173.748 179,174.5C 178.536,173.906 178.369,173.239 178.5,172.5C 183.206,168.822 187.872,165.156 192.5,161.5C 192.435,161.938 192.601,162.272 193,162.5C 193.759,160.937 194.926,159.937 196.5,159.5C 198.017,159.489 199.184,158.823 200,157.5C 199.41,160.283 198.577,163.117 197.5,166C 198.167,166.667 198.833,167.333 199.5,168C 199.011,169.138 198.678,170.305 198.5,171.5 Z"/></g>
<g><path style="opacity:0.88" fill="#1e1309" d="M 182.5,157.5 C 183.5,157.5 184.5,157.5 185.5,157.5C 186.167,157.5 186.5,157.833 186.5,158.5C 182.435,160.233 179.768,163.233 178.5,167.5C 177.883,167.611 177.383,167.944 177,168.5C 176.066,167.142 175.232,165.808 174.5,164.5C 174.34,162.801 174.506,161.134 175,159.5C 175.29,161.044 175.956,162.377 177,163.5C 177.498,160.183 177.665,156.85 177.5,153.5C 178.552,153.351 179.552,153.517 180.5,154C 179.131,156.239 179.631,158.073 182,159.5C 182.464,158.906 182.631,158.239 182.5,157.5 Z"/></g>
<g><path style="opacity:0.396" fill="#5d5143" d="M 226.5,159.5 C 224.421,163.328 222.588,167.328 221,171.5C 220.31,172.738 219.81,172.738 219.5,171.5C 220.635,169.255 221.135,166.922 221,164.5C 219.961,165.71 218.794,166.71 217.5,167.5C 219.266,163.398 222.266,160.731 226.5,159.5 Z"/></g>
<g><path style="opacity:0.898" fill="#1e140b" d="M 148.5,186.5 C 147.732,185.737 147.232,184.737 147,183.5C 146.501,177.509 146.334,171.509 146.5,165.5C 146.5,165.167 146.5,164.833 146.5,164.5C 147.66,157.234 149.16,149.9 151,142.5C 151.167,143.167 151.333,143.833 151.5,144.5C 149.111,158.396 148.111,172.396 148.5,186.5 Z"/></g>
<g><path style="opacity:0.267" fill="#564b3e" d="M 192.5,161.5 C 187.872,165.156 183.206,168.822 178.5,172.5C 177.833,172.5 177.5,172.167 177.5,171.5C 178.434,170.432 178.768,169.099 178.5,167.5C 179.768,163.233 182.435,160.233 186.5,158.5C 188.886,157.702 191.22,156.702 193.5,155.5C 194.089,157.481 193.755,159.481 192.5,161.5 Z M 191.5,157.5 C 192.525,157.897 192.692,158.563 192,159.5C 188.283,162.885 184.283,165.885 180,168.5C 179.935,165.802 181.102,163.636 183.5,162C 186.633,161.14 189.3,159.64 191.5,157.5 Z"/></g>
<g><path style="opacity:0.88" fill="#382c20" d="M 239.5,154.5 C 239.5,156.167 239.5,157.833 239.5,159.5C 239.5,160.5 239.5,161.5 239.5,162.5C 242.655,162.023 245.655,161.023 248.5,159.5C 249.609,159.443 250.609,159.11 251.5,158.5C 251.5,159.5 251.5,160.5 251.5,161.5C 245.636,162.115 240.636,164.448 236.5,168.5C 236.539,167.244 236.039,166.244 235,165.5C 234.844,168.191 234.011,170.524 232.5,172.5C 232.851,170.131 233.018,167.797 233,165.5C 231.955,166.373 231.122,167.373 230.5,168.5C 229.833,168.833 229.167,169.167 228.5,169.5C 226.591,170.679 226.258,170.346 227.5,168.5C 232.624,164.716 236.624,160.049 239.5,154.5 Z"/></g>
<g><path style="opacity:0.988" fill="#d3c3a6" d="M 251.5,161.5 C 251.719,162.675 251.386,163.675 250.5,164.5C 246.132,166.508 241.799,168.508 237.5,170.5C 236.702,170.043 236.369,169.376 236.5,168.5C 240.636,164.448 245.636,162.115 251.5,161.5 Z"/></g>
<g><path style="opacity:0.773" fill="#241910" d="M 219.5,171.5 C 218.314,172.705 218.314,174.039 219.5,175.5C 218.89,176.391 218.557,177.391 218.5,178.5C 217.662,178.842 217.328,179.508 217.5,180.5C 216.685,181.429 215.852,182.429 215,183.5C 214.654,181.782 214.154,180.115 213.5,178.5C 214.84,174.81 216.174,171.143 217.5,167.5C 218.794,166.71 219.961,165.71 221,164.5C 221.135,166.922 220.635,169.255 219.5,171.5 Z"/></g>
<g><path style="opacity:1" fill="#241a11" d="M 174.5,164.5 C 175.232,165.808 176.066,167.142 177,168.5C 177.383,167.944 177.883,167.611 178.5,167.5C 178.768,169.099 178.434,170.432 177.5,171.5C 176.789,169.158 175.456,168.825 173.5,170.5C 172.59,168.981 171.757,167.315 171,165.5C 169.989,164.663 168.822,164.33 167.5,164.5C 167.198,167.059 167.532,169.393 168.5,171.5C 169.401,172.29 170.068,173.29 170.5,174.5C 169.504,174.586 168.671,174.252 168,173.5C 167.536,174.094 167.369,174.761 167.5,175.5C 165.631,177.635 164.964,180.302 165.5,183.5C 163.058,177.152 162.224,170.485 163,163.5C 163.893,164.711 164.726,164.711 165.5,163.5C 164.456,161.232 164.289,158.899 165,156.5C 167.521,160.167 170.521,163.5 174,166.5C 174.464,165.906 174.631,165.239 174.5,164.5 Z"/></g>
<g><path style="opacity:0.2" fill="#4f4438" d="M 173.5,170.5 C 174.435,173.113 174.602,175.779 174,178.5C 172.968,176.973 171.801,175.64 170.5,174.5C 171.497,174.53 172.164,174.03 172.5,173C 171.906,170.21 170.739,167.71 169,165.5C 168.505,167.473 168.338,169.473 168.5,171.5C 167.532,169.393 167.198,167.059 167.5,164.5C 168.822,164.33 169.989,164.663 171,165.5C 171.757,167.315 172.59,168.981 173.5,170.5 Z"/></g>
<g><path style="opacity:0.988" fill="#8f8069" d="M 191.5,166.5 C 191.56,165.957 191.893,165.624 192.5,165.5C 193.824,169.522 192.824,172.855 189.5,175.5C 189.167,175.5 188.833,175.5 188.5,175.5C 189.391,173.391 190.558,171.391 192,169.5C 192.74,168.251 192.573,167.251 191.5,166.5 Z"/></g>
<g><path style="opacity:0.408" fill="#958670" d="M 232.5,172.5 C 232.737,173.791 232.404,174.791 231.5,175.5C 231.802,172.941 231.468,170.607 230.5,168.5C 231.122,167.373 231.955,166.373 233,165.5C 233.018,167.797 232.851,170.131 232.5,172.5 Z"/></g>
<g><path style="opacity:0.918" fill="#3b2f23" d="M 251.5,161.5 C 252.167,163.167 252.833,164.833 253.5,166.5C 253.082,167.222 252.416,167.722 251.5,168C 253.783,168.291 255.95,167.791 258,166.5C 259.684,166.683 259.85,167.35 258.5,168.5C 257.415,170.587 255.749,171.92 253.5,172.5C 252.391,172.557 251.391,172.89 250.5,173.5C 250.5,172.167 249.833,171.5 248.5,171.5C 248.414,170.504 248.748,169.671 249.5,169C 245.412,168.289 241.912,169.456 239,172.5C 238.26,173.749 238.427,174.749 239.5,175.5C 237.965,176.788 236.299,176.788 234.5,175.5C 235.263,174.281 236.263,173.281 237.5,172.5C 235.62,171.286 235.287,169.952 236.5,168.5C 236.369,169.376 236.702,170.043 237.5,170.5C 241.799,168.508 246.132,166.508 250.5,164.5C 251.386,163.675 251.719,162.675 251.5,161.5 Z"/></g>
<g><path style="opacity:1" fill="#d7c7aa" d="M 248.5,171.5 C 245.878,173.644 242.878,174.977 239.5,175.5C 238.427,174.749 238.26,173.749 239,172.5C 241.912,169.456 245.412,168.289 249.5,169C 248.748,169.671 248.414,170.504 248.5,171.5 Z"/></g>
<g><path style="opacity:0.024" fill="#665a4b" d="M 190.5,167.5 C 188.562,170.443 186.229,173.11 183.5,175.5C 183.414,174.504 183.748,173.671 184.5,173C 183.906,172.536 183.239,172.369 182.5,172.5C 184.794,170.347 187.46,168.68 190.5,167.5 Z"/></g>
<g><path style="opacity:0.957" fill="#c8b79a" d="M 191.5,166.5 C 192.573,167.251 192.74,168.251 192,169.5C 190.558,171.391 189.391,173.391 188.5,175.5C 187.469,176.355 186.303,177.022 185,177.5C 183.97,177.164 183.47,176.497 183.5,175.5C 186.229,173.11 188.562,170.443 190.5,167.5C 191.167,167.5 191.5,167.167 191.5,166.5 Z"/></g>
<g><path style="opacity:0.096" fill="#554b3e" d="M 217.5,150.5 C 213.489,158.701 209.655,167.034 206,175.5C 205.586,175.957 205.086,176.291 204.5,176.5C 203.028,171.262 204.028,166.595 207.5,162.5C 207.007,165.812 206.007,168.979 204.5,172C 204.611,173.722 205.111,173.888 206,172.5C 208.558,164.38 212.391,157.046 217.5,150.5 Z"/></g>
<g><path style="opacity:0.988" fill="#ddcdaf" d="M 230.5,168.5 C 231.468,170.607 231.802,172.941 231.5,175.5C 231.5,175.833 231.5,176.167 231.5,176.5C 230.167,176.5 228.833,176.5 227.5,176.5C 227.5,175.167 227.5,173.833 227.5,172.5C 228.11,171.609 228.443,170.609 228.5,169.5C 229.167,169.167 229.833,168.833 230.5,168.5 Z"/></g>
<g><path style="opacity:1" fill="#261a0e" d="M 236.5,168.5 C 235.287,169.952 235.62,171.286 237.5,172.5C 236.263,173.281 235.263,174.281 234.5,175.5C 236.299,176.788 237.965,176.788 239.5,175.5C 242.878,174.977 245.878,173.644 248.5,171.5C 249.833,171.5 250.5,172.167 250.5,173.5C 249.167,174.5 247.833,175.5 246.5,176.5C 244.147,177.34 242.147,178.674 240.5,180.5C 239.486,179.235 237.986,178.569 236,178.5C 233.784,178.653 231.617,178.986 229.5,179.5C 230.167,178.5 230.833,177.5 231.5,176.5C 231.5,176.167 231.5,175.833 231.5,175.5C 232.404,174.791 232.737,173.791 232.5,172.5C 234.011,170.524 234.844,168.191 235,165.5C 236.039,166.244 236.539,167.244 236.5,168.5 Z"/></g>
<g><path style="opacity:0.099" fill="#605445" d="M 253.5,172.5 C 252.71,173.794 251.71,174.961 250.5,176C 251.449,176.617 252.282,176.451 253,175.5C 254.839,178.217 254.006,179.884 250.5,180.5C 252.054,179.105 251.721,178.439 249.5,178.5C 247.945,178.722 246.611,179.389 245.5,180.5C 245.167,180.167 244.833,179.833 244.5,179.5C 245.193,178.482 245.859,177.482 246.5,176.5C 247.833,175.5 249.167,174.5 250.5,173.5C 251.391,172.89 252.391,172.557 253.5,172.5 Z"/></g>
<g><path style="opacity:0.839" fill="#7a6d5a" d="M 227.5,172.5 C 227.5,173.833 227.5,175.167 227.5,176.5C 228.833,176.5 230.167,176.5 231.5,176.5C 230.833,177.5 230.167,178.5 229.5,179.5C 227.685,180.63 225.685,181.296 223.5,181.5C 223.692,177.898 225.026,174.898 227.5,172.5 Z"/></g>
<g><path style="opacity:0.314" fill="#52473b" d="M 167.5,175.5 C 170.242,178.692 172.242,182.358 173.5,186.5C 173.5,187.167 173.5,187.833 173.5,188.5C 172.692,190.22 171.692,191.887 170.5,193.5C 168.449,190.342 166.783,187.008 165.5,183.5C 164.964,180.302 165.631,177.635 167.5,175.5 Z M 166.5,177.5 C 168.335,178.122 169.502,179.456 170,181.5C 171.318,184.406 171.652,187.406 171,190.5C 168.43,186.56 166.93,182.227 166.5,177.5 Z"/></g>
<g><path style="opacity:1" fill="#20150c" d="M 177.5,171.5 C 176.751,172.531 176.085,173.698 175.5,175C 176.719,177.283 176.719,179.616 175.5,182C 176.707,183.3 177.374,184.8 177.5,186.5C 176.833,186.833 176.167,187.167 175.5,187.5C 175.591,185.302 174.925,184.969 173.5,186.5C 172.242,182.358 170.242,178.692 167.5,175.5C 167.369,174.761 167.536,174.094 168,173.5C 168.671,174.252 169.504,174.586 170.5,174.5C 171.801,175.64 172.968,176.973 174,178.5C 174.602,175.779 174.435,173.113 173.5,170.5C 175.456,168.825 176.789,169.158 177.5,171.5 Z"/></g>
<g><path style="opacity:0.957" fill="#c9b99b" d="M 190.5,179.5 C 189.833,180.5 189.167,181.5 188.5,182.5C 186.952,182.179 186.285,181.179 186.5,179.5C 187.961,178.314 189.295,178.314 190.5,179.5 Z"/></g>
<g><path style="opacity:1" fill="#261b13" d="M 191.5,178.5 C 193.098,178.61 194.765,178.943 196.5,179.5C 194.73,185.708 192.397,191.708 189.5,197.5C 188.864,199.795 187.531,201.461 185.5,202.5C 185.167,202.5 184.833,202.5 184.5,202.5C 183.833,201.833 183.167,201.167 182.5,200.5C 184.371,200.141 185.871,199.141 187,197.5C 188.413,194.339 190.08,191.339 192,188.5C 192.667,186.833 192.667,185.167 192,183.5C 189.218,185.771 187.051,188.437 185.5,191.5C 184.833,191.833 184.167,192.167 183.5,192.5C 183.5,191.167 182.833,190.5 181.5,190.5C 184.745,188.706 187.079,186.039 188.5,182.5C 189.167,181.5 189.833,180.5 190.5,179.5C 191.167,179.5 191.5,179.167 191.5,178.5 Z"/></g>
<g><path style="opacity:1" fill="#372c21" d="M 217.5,167.5 C 216.174,171.143 214.84,174.81 213.5,178.5C 214.154,180.115 214.654,181.782 215,183.5C 215.852,182.429 216.685,181.429 217.5,180.5C 217.5,181.167 217.5,181.833 217.5,182.5C 217.5,182.833 217.5,183.167 217.5,183.5C 215.735,186.123 215.068,189.123 215.5,192.5C 214.833,189.833 214.167,187.167 213.5,184.5C 212.652,183.375 211.652,183.375 210.5,184.5C 210.662,182.473 210.495,180.473 210,178.5C 209.5,179 209,179.5 208.5,180C 209.576,181.726 209.743,183.559 209,185.5C 208.79,183.942 208.29,182.609 207.5,181.5C 207.5,181.167 207.5,180.833 207.5,180.5C 211.34,176.573 214.674,172.24 217.5,167.5 Z"/></g>
<g><path style="opacity:0.941" fill="#b5a68c" d="M 239.5,180.5 C 238.292,181.234 236.959,181.567 235.5,181.5C 234.624,181.631 233.957,181.298 233.5,180.5C 235.636,179.207 237.636,179.207 239.5,180.5 Z"/></g>
<g><path style="opacity:0.125" fill="#6a5d4d" d="M 240.5,180.5 C 240.167,180.5 239.833,180.5 239.5,180.5C 237.636,179.207 235.636,179.207 233.5,180.5C 233.957,181.298 234.624,181.631 235.5,181.5C 233.833,182.167 232.167,182.833 230.5,183.5C 229.041,183.433 227.708,183.766 226.5,184.5C 225.957,184.44 225.624,184.107 225.5,183.5C 227.188,182.479 228.521,181.145 229.5,179.5C 231.617,178.986 233.784,178.653 236,178.5C 237.986,178.569 239.486,179.235 240.5,180.5 Z"/></g>
<g><path style="opacity:0.749" fill="#afa086" d="M 221.5,182.5 C 219.738,181.738 218.738,180.404 218.5,178.5C 218.557,177.391 218.89,176.391 219.5,175.5C 220.15,175.196 220.817,174.863 221.5,174.5C 222.8,177.309 222.8,179.976 221.5,182.5 Z"/></g>
<g><path style="opacity:0.141" fill="#625648" d="M 250.5,180.5 C 248.353,182.47 246.02,184.303 243.5,186C 244.938,186.219 246.271,186.719 247.5,187.5C 247.145,188.522 246.478,189.189 245.5,189.5C 245.631,188.761 245.464,188.094 245,187.5C 242.985,188.842 240.818,189.342 238.5,189C 239.056,188.617 239.389,188.117 239.5,187.5C 242.732,184.39 246.399,182.056 250.5,180.5 Z"/></g>
<g><path style="opacity:0.773" fill="#33281e" d="M 177.5,171.5 C 177.5,172.167 177.833,172.5 178.5,172.5C 178.369,173.239 178.536,173.906 179,174.5C 179.671,173.748 180.504,173.414 181.5,173.5C 180.177,175.471 178.844,177.471 177.5,179.5C 178.002,180.521 178.668,180.688 179.5,180C 181.07,178.603 182.404,177.103 183.5,175.5C 183.47,176.497 183.97,177.164 185,177.5C 186.303,177.022 187.469,176.355 188.5,175.5C 188.833,175.5 189.167,175.5 189.5,175.5C 188.321,177.507 188.821,177.84 191,176.5C 191.464,177.094 191.631,177.761 191.5,178.5C 191.5,179.167 191.167,179.5 190.5,179.5C 189.295,178.314 187.961,178.314 186.5,179.5C 183.437,181.025 180.77,183.025 178.5,185.5C 178.5,186.167 178.167,186.5 177.5,186.5C 177.374,184.8 176.707,183.3 175.5,182C 176.719,179.616 176.719,177.283 175.5,175C 176.085,173.698 176.751,172.531 177.5,171.5 Z"/></g>
<g><path style="opacity:1" fill="#23180e" d="M 230.5,183.5 C 232.857,183.337 235.19,183.503 237.5,184C 236.584,184.278 235.918,184.778 235.5,185.5C 231.867,186.262 228.534,187.596 225.5,189.5C 224.833,189.833 224.167,190.167 223.5,190.5C 218.943,192.116 215.61,195.116 213.5,199.5C 212.542,199.953 211.708,200.619 211,201.5C 210.601,201.272 210.435,200.938 210.5,200.5C 210.5,199.833 210.5,199.167 210.5,198.5C 211.222,198.082 211.722,197.416 212,196.5C 212.392,192.472 212.892,188.472 213.5,184.5C 214.167,187.167 214.833,189.833 215.5,192.5C 217.88,191.747 219.88,190.413 221.5,188.5C 222.931,188.119 223.764,187.119 224,185.5C 225.007,187.742 225.841,187.408 226.5,184.5C 227.708,183.766 229.041,183.433 230.5,183.5 Z"/></g>
<g><path style="opacity:1" fill="#231a11" d="M 246.5,176.5 C 245.859,177.482 245.193,178.482 244.5,179.5C 244.833,179.833 245.167,180.167 245.5,180.5C 246.611,179.389 247.945,178.722 249.5,178.5C 251.721,178.439 252.054,179.105 250.5,180.5C 246.399,182.056 242.732,184.39 239.5,187.5C 238.122,185.03 238.455,182.696 240.5,180.5C 242.147,178.674 244.147,177.34 246.5,176.5 Z"/></g>
<g><path style="opacity:0.23" fill="#584d40" d="M 268.5,201.5 C 268.5,200.167 268.5,198.833 268.5,197.5C 270.896,193.48 272.396,189.147 273,184.5C 272.583,185.756 271.75,186.423 270.5,186.5C 271.729,182.372 273.729,178.705 276.5,175.5C 276.833,176.167 277.167,176.833 277.5,177.5C 275.259,185.904 272.259,193.904 268.5,201.5 Z"/></g>
<g><path style="opacity:0.1" fill="#635748" d="M 186.5,179.5 C 186.285,181.179 186.952,182.179 188.5,182.5C 187.079,186.039 184.745,188.706 181.5,190.5C 179.742,190.877 178.075,191.544 176.5,192.5C 175.548,190.955 175.215,189.288 175.5,187.5C 176.167,187.167 176.833,186.833 177.5,186.5C 178.828,188.896 180.494,188.896 182.5,186.5C 181.311,185.571 179.978,185.238 178.5,185.5C 180.77,183.025 183.437,181.025 186.5,179.5 Z"/></g>
<g><path style="opacity:0.694" fill="#635748" d="M 213.5,184.5 C 212.892,188.472 212.392,192.472 212,196.5C 211.722,197.416 211.222,198.082 210.5,198.5C 208.833,198.5 207.167,198.5 205.5,198.5C 206.024,196.694 206.691,195.028 207.5,193.5C 207.238,194.978 207.571,196.311 208.5,197.5C 210.873,194.547 211.707,191.214 211,187.5C 210.617,188.056 210.117,188.389 209.5,188.5C 209.833,187.167 210.167,185.833 210.5,184.5C 211.652,183.375 212.652,183.375 213.5,184.5 Z"/></g>
<g><path style="opacity:0.297" fill="#6d6050" d="M 235.5,185.5 C 236.376,185.369 237.043,185.702 237.5,186.5C 235.81,188.519 234.144,190.519 232.5,192.5C 225.905,194.547 219.738,197.547 214,201.5C 213.536,200.906 213.369,200.239 213.5,199.5C 215.61,195.116 218.943,192.116 223.5,190.5C 221.621,193.115 219.288,195.281 216.5,197C 219.275,196.626 221.942,195.626 224.5,194C 226.863,191.82 229.53,190.153 232.5,189C 230.153,188.666 227.819,188.833 225.5,189.5C 228.534,187.596 231.867,186.262 235.5,185.5 Z"/></g>
<g><path style="opacity:0.096" fill="#5f5345" d="M 182.5,200.5 C 181.596,199.791 181.263,198.791 181.5,197.5C 182.537,196.07 183.204,194.403 183.5,192.5C 184.167,192.167 184.833,191.833 185.5,191.5C 187.051,188.437 189.218,185.771 192,183.5C 192.667,185.167 192.667,186.833 192,188.5C 190.08,191.339 188.413,194.339 187,197.5C 185.871,199.141 184.371,200.141 182.5,200.5 Z M 185.5,191.5 C 186.895,189.946 187.561,190.279 187.5,192.5C 184.725,199.148 184.058,198.815 185.5,191.5 Z"/></g>
<g><path style="opacity:1" fill="#251b12" d="M 210.5,184.5 C 210.167,185.833 209.833,187.167 209.5,188.5C 209.598,190.553 208.931,192.22 207.5,193.5C 206.691,195.028 206.024,196.694 205.5,198.5C 205.5,199.167 205.5,199.833 205.5,200.5C 204.953,197.425 203.953,194.425 202.5,191.5C 204.191,188.153 205.858,184.819 207.5,181.5C 208.29,182.609 208.79,183.942 209,185.5C 209.743,183.559 209.576,181.726 208.5,180C 209,179.5 209.5,179 210,178.5C 210.495,180.473 210.662,182.473 210.5,184.5 Z"/></g>
<g><path style="opacity:0.248" fill="#4b4135" d="M 133.5,222.5 C 132.685,221.571 131.852,220.571 131,219.5C 129.866,223.14 128.866,222.807 128,218.5C 125.008,207.733 123.675,196.733 124,185.5C 123.768,186.737 123.268,187.737 122.5,188.5C 122.457,185.09 122.957,181.757 124,178.5C 125.566,174.765 126.733,174.765 127.5,178.5C 124.499,191.313 124.999,203.98 129,216.5C 129.741,217.641 130.575,217.641 131.5,216.5C 132.768,218.304 133.435,220.304 133.5,222.5 Z"/></g>
<g><path style="opacity:0.427" fill="#5d5143" d="M 218.5,178.5 C 218.738,180.404 219.738,181.738 221.5,182.5C 221.5,184.5 221.5,186.5 221.5,188.5C 219.88,190.413 217.88,191.747 215.5,192.5C 215.068,189.123 215.735,186.123 217.5,183.5C 216.019,192.12 216.685,192.454 219.5,184.5C 219.253,183.287 218.586,182.62 217.5,182.5C 217.5,181.833 217.5,181.167 217.5,180.5C 217.328,179.508 217.662,178.842 218.5,178.5 Z"/></g>
<g><path style="opacity:1" fill="#2b2016" d="M 239.5,180.5 C 239.833,180.5 240.167,180.5 240.5,180.5C 238.455,182.696 238.122,185.03 239.5,187.5C 239.389,188.117 239.056,188.617 238.5,189C 240.818,189.342 242.985,188.842 245,187.5C 245.464,188.094 245.631,188.761 245.5,189.5C 244.738,191.262 243.404,192.262 241.5,192.5C 239.216,192.975 237.216,193.975 235.5,195.5C 234.167,194.833 233.167,193.833 232.5,192.5C 234.144,190.519 235.81,188.519 237.5,186.5C 237.043,185.702 236.376,185.369 235.5,185.5C 235.918,184.778 236.584,184.278 237.5,184C 235.19,183.503 232.857,183.337 230.5,183.5C 232.167,182.833 233.833,182.167 235.5,181.5C 236.959,181.567 238.292,181.234 239.5,180.5 Z"/></g>
<g><path style="opacity:0.314" fill="#4a4035" d="M 198.5,171.5 C 198.421,172.93 198.754,174.264 199.5,175.5C 197.541,179.669 196.041,184.002 195,188.5C 193.643,191.898 191.81,194.898 189.5,197.5C 192.397,191.708 194.73,185.708 196.5,179.5C 197.768,178.213 197.435,177.213 195.5,176.5C 196.696,174.855 197.696,173.189 198.5,171.5 Z"/></g>
<g><path style="opacity:0.314" fill="#473d32" d="M 145.5,185.5 C 145.612,195.509 145.945,205.509 146.5,215.5C 144.966,209.916 144.299,204.083 144.5,198C 144.501,193.653 144.834,189.486 145.5,185.5 Z"/></g>
<g><path style="opacity:1" fill="#251c13" d="M 146.5,165.5 C 146.334,171.509 146.501,177.509 147,183.5C 147.232,184.737 147.732,185.737 148.5,186.5C 148.194,189.385 148.527,192.052 149.5,194.5C 149.8,201.301 150.133,207.967 150.5,214.5C 150.5,214.833 150.5,215.167 150.5,215.5C 150.66,217.199 150.494,218.866 150,220.5C 148.258,220.236 147.091,218.903 146.5,216.5C 146.5,216.167 146.5,215.833 146.5,215.5C 145.945,205.509 145.612,195.509 145.5,185.5C 145.176,178.646 145.509,171.979 146.5,165.5 Z"/></g>
<g><path style="opacity:0.156" fill="#615547" d="M 180.5,196.5 C 179.779,198.382 178.779,198.715 177.5,197.5C 177.5,197.167 177.5,196.833 177.5,196.5C 176.596,195.791 176.263,194.791 176.5,193.5C 178.484,193.617 180.15,192.95 181.5,191.5C 181.833,191.833 182.167,192.167 182.5,192.5C 181.37,193.622 180.703,194.956 180.5,196.5 Z"/></g>
<g><path style="opacity:0.682" fill="#2a1f15" d="M 165.5,183.5 C 166.783,187.008 168.449,190.342 170.5,193.5C 170.415,194.995 171.081,195.995 172.5,196.5C 173.48,193.914 173.813,191.247 173.5,188.5C 173.5,187.833 173.5,187.167 173.5,186.5C 174.925,184.969 175.591,185.302 175.5,187.5C 175.215,189.288 175.548,190.955 176.5,192.5C 178.075,191.544 179.742,190.877 181.5,190.5C 182.833,190.5 183.5,191.167 183.5,192.5C 183.204,194.403 182.537,196.07 181.5,197.5C 181.5,196.833 181.167,196.5 180.5,196.5C 180.703,194.956 181.37,193.622 182.5,192.5C 182.167,192.167 181.833,191.833 181.5,191.5C 180.15,192.95 178.484,193.617 176.5,193.5C 176.263,194.791 176.596,195.791 177.5,196.5C 177.5,196.833 177.5,197.167 177.5,197.5C 176.5,197.5 175.5,197.5 174.5,197.5C 174.737,198.791 174.404,199.791 173.5,200.5C 170.442,198.043 168.108,195.043 166.5,191.5C 165.596,190.791 165.263,189.791 165.5,188.5C 165.5,186.833 165.5,185.167 165.5,183.5 Z"/></g>
<g><path style="opacity:0.941" fill="#b2a388" d="M 173.5,188.5 C 173.813,191.247 173.48,193.914 172.5,196.5C 171.081,195.995 170.415,194.995 170.5,193.5C 171.692,191.887 172.692,190.22 173.5,188.5 Z"/></g>
<g><path style="opacity:1" fill="#271c13" d="M 232.5,192.5 C 233.167,193.833 234.167,194.833 235.5,195.5C 234.738,197.262 233.404,198.262 231.5,198.5C 227.44,198.485 223.44,198.985 219.5,200C 217.416,200.697 215.749,201.864 214.5,203.5C 214.167,204.167 213.833,204.833 213.5,205.5C 212.391,205.557 211.391,205.89 210.5,206.5C 209.833,206.5 209.167,206.5 208.5,206.5C 207.833,206.167 207.167,205.833 206.5,205.5C 207.789,204.363 208.789,203.03 209.5,201.5C 209.5,200.833 209.833,200.5 210.5,200.5C 210.435,200.938 210.601,201.272 211,201.5C 211.708,200.619 212.542,199.953 213.5,199.5C 213.369,200.239 213.536,200.906 214,201.5C 219.738,197.547 225.905,194.547 232.5,192.5 Z"/></g>
<g><path style="opacity:0.941" fill="#b0a187" d="M 203.5,203.5 C 203.167,203.5 202.833,203.5 202.5,203.5C 201.78,197.172 201.114,197.505 200.5,204.5C 200.667,206.167 200.833,207.833 201,209.5C 201.278,208.584 201.778,207.918 202.5,207.5C 202.509,209.308 202.009,210.975 201,212.5C 198.835,210.347 198.002,207.681 198.5,204.5C 198.767,202.035 199.434,199.701 200.5,197.5C 201.158,196.602 201.824,195.602 202.5,194.5C 203.484,197.428 203.817,200.428 203.5,203.5 Z"/></g>
<g><path style="opacity:1" fill="#372d22" d="M 231.5,198.5 C 231.47,199.497 231.97,200.164 233,200.5C 234.798,199.496 236.632,198.996 238.5,199C 237.177,199.816 236.511,200.983 236.5,202.5C 236.158,203.338 235.492,203.672 234.5,203.5C 233.833,203.5 233.167,203.5 232.5,203.5C 231.399,201.606 230.066,200.939 228.5,201.5C 228.53,200.503 228.03,199.836 227,199.5C 225.989,200.056 225.156,200.722 224.5,201.5C 224.44,200.957 224.107,200.624 223.5,200.5C 220.686,202.105 217.686,203.105 214.5,203.5C 215.749,201.864 217.416,200.697 219.5,200C 223.44,198.985 227.44,198.485 231.5,198.5 Z"/></g>
<g><path style="opacity:0.957" fill="#e2d1b1" d="M 202.5,203.5 C 202.5,204.833 202.5,206.167 202.5,207.5C 201.778,207.918 201.278,208.584 201,209.5C 200.833,207.833 200.667,206.167 200.5,204.5C 201.114,197.505 201.78,197.172 202.5,203.5 Z"/></g>
<g><path style="opacity:0.902" fill="#4c4032" d="M 207.5,180.5 C 207.5,180.833 207.5,181.167 207.5,181.5C 205.858,184.819 204.191,188.153 202.5,191.5C 203.953,194.425 204.953,197.425 205.5,200.5C 206.211,202.842 207.544,203.175 209.5,201.5C 208.789,203.03 207.789,204.363 206.5,205.5C 206.44,206.043 206.107,206.376 205.5,206.5C 204.824,205.398 204.158,204.398 203.5,203.5C 203.817,200.428 203.484,197.428 202.5,194.5C 201.824,195.602 201.158,196.602 200.5,197.5C 199.744,195.387 199.577,193.387 200,191.5C 199.292,192.381 198.458,193.047 197.5,193.5C 197.709,192.078 198.209,190.745 199,189.5C 202.743,187.26 205.576,184.26 207.5,180.5 Z"/></g>
<g><path style="opacity:0.11" fill="#594e41" d="M 241.5,192.5 C 241.047,193.458 240.381,194.292 239.5,195C 241.158,195.725 241.658,196.892 241,198.5C 239.629,200.041 238.129,201.375 236.5,202.5C 236.511,200.983 237.177,199.816 238.5,199C 236.632,198.996 234.798,199.496 233,200.5C 231.97,200.164 231.47,199.497 231.5,198.5C 233.404,198.262 234.738,197.262 235.5,195.5C 237.216,193.975 239.216,192.975 241.5,192.5 Z"/></g>
<g><path style="opacity:0.941" fill="#bfaf94" d="M 205.5,198.5 C 207.167,198.5 208.833,198.5 210.5,198.5C 210.5,199.167 210.5,199.833 210.5,200.5C 209.833,200.5 209.5,200.833 209.5,201.5C 207.544,203.175 206.211,202.842 205.5,200.5C 205.5,199.833 205.5,199.167 205.5,198.5 Z"/></g>
<g><path style="opacity:0.631" fill="#80725f" d="M 228.5,201.5 C 224.117,204.358 219.45,206.692 214.5,208.5C 213.833,208.5 213.5,208.167 213.5,207.5C 213.5,206.833 213.5,206.167 213.5,205.5C 217.458,204.929 221.124,203.595 224.5,201.5C 225.156,200.722 225.989,200.056 227,199.5C 228.03,199.836 228.53,200.503 228.5,201.5 Z"/></g>
<g><path style="opacity:0.314" fill="#483d32" d="M 112.5,212.5 C 111.778,212.082 111.278,211.416 111,210.5C 110.17,205.857 109.503,201.19 109,196.5C 108.391,203.189 108.557,209.856 109.5,216.5C 106.563,207.413 106.063,198.08 108,188.5C 108.414,188.043 108.914,187.709 109.5,187.5C 110.583,195.829 111.583,204.162 112.5,212.5 Z"/></g>
<g><path style="opacity:1" fill="#2d2218" d="M 200.5,197.5 C 199.434,199.701 198.767,202.035 198.5,204.5C 197.683,206.969 197.183,209.635 197,212.5C 196.95,210.256 196.117,208.589 194.5,207.5C 195.853,206.133 195.519,205.133 193.5,204.5C 192.675,206.36 191.675,208.026 190.5,209.5C 190.511,206.11 191.845,203.444 194.5,201.5C 195.009,198.538 196.009,195.871 197.5,193.5C 198.458,193.047 199.292,192.381 200,191.5C 199.577,193.387 199.744,195.387 200.5,197.5 Z"/></g>
<g><path style="opacity:0.482" fill="#4a3f34" d="M 184.5,202.5 C 184.833,202.5 185.167,202.5 185.5,202.5C 181.649,206.191 179.816,210.858 180,216.5C 177.397,237.117 176.564,257.783 177.5,278.5C 175.822,273.432 175.156,268.098 175.5,262.5C 175.5,261.167 175.5,259.833 175.5,258.5C 175.747,245.773 176.747,233.106 178.5,220.5C 178.5,218.833 178.5,217.167 178.5,215.5C 179.045,212.187 179.545,208.854 180,205.5C 180.908,203.561 182.408,202.561 184.5,202.5 Z"/></g>
<g><path style="opacity:0.118" fill="#554b3f" d="M 94.5,203.5 C 95.7498,203.577 96.5831,204.244 97,205.5C 99.3384,211.282 100.838,216.949 101.5,222.5C 97.409,216.902 95.0757,210.568 94.5,203.5 Z"/></g>
<g><path style="opacity:0.11" fill="#564b3e" d="M 208.5,206.5 C 209.167,206.5 209.833,206.5 210.5,206.5C 208.539,210.101 209.539,210.435 213.5,207.5C 213.5,208.167 213.833,208.5 214.5,208.5C 214.5,208.833 214.5,209.167 214.5,209.5C 210.763,210.068 207.596,211.735 205,214.5C 204.777,211.275 205.943,208.609 208.5,206.5 Z"/></g>
<g><path style="opacity:1" fill="#291e13" d="M 232.5,203.5 C 229.729,205.767 227.062,208.267 224.5,211C 226.207,211.195 227.874,211.195 229.5,211C 224.555,213.945 220.222,217.612 216.5,222C 212.114,221.876 207.78,222.376 203.5,223.5C 202.833,223.833 202.167,224.167 201.5,224.5C 201.5,223.833 201.167,223.5 200.5,223.5C 203.928,220.397 207.928,218.73 212.5,218.5C 214.907,217.206 217.074,215.539 219,213.5C 219.528,212.184 219.028,211.517 217.5,211.5C 216.833,211.5 216.167,211.5 215.5,211.5C 215.672,210.508 215.338,209.842 214.5,209.5C 214.5,209.167 214.5,208.833 214.5,208.5C 219.45,206.692 224.117,204.358 228.5,201.5C 230.066,200.939 231.399,201.606 232.5,203.5 Z"/></g>
<g><path style="opacity:1" fill="#3e3429" d="M 166.5,191.5 C 168.108,195.043 170.442,198.043 173.5,200.5C 174.629,210.858 175.629,210.525 176.5,199.5C 177.833,200.167 178.833,201.167 179.5,202.5C 177.87,205.276 177.203,208.276 177.5,211.5C 176.5,211.5 175.5,211.5 174.5,211.5C 174.5,214.167 174.5,216.833 174.5,219.5C 174.737,220.791 174.404,221.791 173.5,222.5C 173.5,222.167 173.5,221.833 173.5,221.5C 173.331,214.813 172.831,208.146 172,201.5C 168.853,198.872 167.02,195.538 166.5,191.5 Z"/></g>
<g><path style="opacity:0.741" fill="#21160c" d="M 203.5,203.5 C 204.158,204.398 204.824,205.398 205.5,206.5C 206.107,206.376 206.44,206.043 206.5,205.5C 207.167,205.833 207.833,206.167 208.5,206.5C 205.943,208.609 204.777,211.275 205,214.5C 207.596,211.735 210.763,210.068 214.5,209.5C 215.338,209.842 215.672,210.508 215.5,211.5C 210.991,212.092 206.991,213.759 203.5,216.5C 202.662,216.158 202.328,215.492 202.5,214.5C 203.344,210.901 203.677,207.234 203.5,203.5 Z"/></g>
<g><path style="opacity:0.361" fill="#4d4337" d="M 277.5,223.5 C 277.657,222.127 277.49,220.793 277,219.5C 275.145,224.946 272.645,229.946 269.5,234.5C 273.706,223.75 278.206,213.083 283,202.5C 284.156,201.007 284.99,201.174 285.5,203C 283.495,210.198 280.828,217.031 277.5,223.5 Z"/></g>
<g><path style="opacity:0.431" fill="#4c4237" d="M 122.5,188.5 C 121.901,199.428 123.234,210.095 126.5,220.5C 123.938,215.939 122.438,210.939 122,205.5C 121.182,199.651 121.348,193.985 122.5,188.5 Z"/></g>
<g><path style="opacity:1" fill="#1f150c" d="M 180.5,196.5 C 181.167,196.5 181.5,196.833 181.5,197.5C 181.263,198.791 181.596,199.791 182.5,200.5C 183.167,201.167 183.833,201.833 184.5,202.5C 182.408,202.561 180.908,203.561 180,205.5C 179.545,208.854 179.045,212.187 178.5,215.5C 177.849,214.909 177.182,214.243 176.5,213.5C 175.831,215.631 175.165,217.631 174.5,219.5C 174.5,216.833 174.5,214.167 174.5,211.5C 175.5,211.5 176.5,211.5 177.5,211.5C 177.203,208.276 177.87,205.276 179.5,202.5C 178.833,201.167 177.833,200.167 176.5,199.5C 175.629,210.525 174.629,210.858 173.5,200.5C 174.404,199.791 174.737,198.791 174.5,197.5C 175.5,197.5 176.5,197.5 177.5,197.5C 178.779,198.715 179.779,198.382 180.5,196.5 Z"/></g>
<g><path style="opacity:0.175" fill="#5a4f41" d="M 232.5,203.5 C 233.167,203.5 233.833,203.5 234.5,203.5C 233.06,205.388 231.394,207.055 229.5,208.5C 229.977,209.478 230.643,210.311 231.5,211C 223.455,218.047 215.122,224.713 206.5,231C 204.285,232.044 201.952,232.71 199.5,233C 197.205,236.751 195.205,240.585 193.5,244.5C 194.238,240.285 195.572,236.285 197.5,232.5C 203.265,231.577 208.265,229.077 212.5,225C 210.213,224.972 208.213,225.805 206.5,227.5C 206.201,225.545 205.201,224.211 203.5,223.5C 207.78,222.376 212.114,221.876 216.5,222C 220.222,217.612 224.555,213.945 229.5,211C 227.874,211.195 226.207,211.195 224.5,211C 227.062,208.267 229.729,205.767 232.5,203.5 Z"/></g>
<g><path style="opacity:0.838" fill="#4a3d30" d="M 202.5,203.5 C 202.833,203.5 203.167,203.5 203.5,203.5C 203.677,207.234 203.344,210.901 202.5,214.5C 200.132,218.749 198.632,218.416 198,213.5C 197.819,216.695 197.319,219.695 196.5,222.5C 196.665,219.482 196.498,216.482 196,213.5C 194.989,212.663 193.822,212.33 192.5,212.5C 192.402,210.447 193.069,208.78 194.5,207.5C 196.117,208.589 196.95,210.256 197,212.5C 197.183,209.635 197.683,206.969 198.5,204.5C 198.002,207.681 198.835,210.347 201,212.5C 202.009,210.975 202.509,209.308 202.5,207.5C 202.5,206.167 202.5,204.833 202.5,203.5 Z"/></g>
<g><path style="opacity:0.749" fill="#968770" d="M 192.5,212.5 C 193.822,212.33 194.989,212.663 196,213.5C 196.498,216.482 196.665,219.482 196.5,222.5C 196.167,222.5 195.833,222.5 195.5,222.5C 195.5,219.833 195.5,217.167 195.5,214.5C 194.5,214.5 193.5,214.5 192.5,214.5C 192.508,217.545 192.841,220.545 193.5,223.5C 191.285,220.097 190.952,216.43 192.5,212.5 Z"/></g>
<g><path style="opacity:0.095" fill="#5e5244" d="M 215.5,211.5 C 216.167,211.5 216.833,211.5 217.5,211.5C 217.167,212.5 216.5,213.167 215.5,213.5C 213.293,214.13 211.626,215.464 210.5,217.5C 210.842,218.338 211.508,218.672 212.5,218.5C 207.928,218.73 203.928,220.397 200.5,223.5C 199.35,224.85 198.683,224.684 198.5,223C 200.057,220.706 201.723,218.539 203.5,216.5C 206.991,213.759 210.991,212.092 215.5,211.5 Z M 210.5,217.5 C 202.866,219.023 202.699,218.023 210,214.5C 210.483,215.448 210.649,216.448 210.5,217.5 Z"/></g>
<g><path style="opacity:0.639" fill="#9b8c74" d="M 217.5,211.5 C 219.028,211.517 219.528,212.184 219,213.5C 217.074,215.539 214.907,217.206 212.5,218.5C 211.508,218.672 210.842,218.338 210.5,217.5C 211.626,215.464 213.293,214.13 215.5,213.5C 216.5,213.167 217.167,212.5 217.5,211.5 Z"/></g>
<g><path style="opacity:0.096" fill="#584c3f" d="M 268.5,201.5 C 267.462,205.913 266.129,210.246 264.5,214.5C 266.045,215.452 267.712,215.785 269.5,215.5C 269.5,216.833 269.5,218.167 269.5,219.5C 268.167,219.5 266.833,219.5 265.5,219.5C 266.263,218.732 267.263,218.232 268.5,218C 266.1,217.814 263.766,217.314 261.5,216.5C 263.608,211.289 265.942,206.289 268.5,201.5 Z"/></g>
<g><path style="opacity:1" fill="#231a11" d="M 178.5,215.5 C 178.5,217.167 178.5,218.833 178.5,220.5C 177.603,221.598 176.77,221.598 176,220.5C 175.316,221.784 175.483,222.951 176.5,224C 174.431,224.324 174.098,225.158 175.5,226.5C 175.217,231.89 174.217,236.89 172.5,241.5C 173.19,235.19 173.524,228.857 173.5,222.5C 174.404,221.791 174.737,220.791 174.5,219.5C 175.165,217.631 175.831,215.631 176.5,213.5C 177.182,214.243 177.849,214.909 178.5,215.5 Z"/></g>
<g><path style="opacity:0.749" fill="#c9b99c" d="M 195.5,222.5 C 195.289,224.424 194.623,224.757 193.5,223.5C 192.841,220.545 192.508,217.545 192.5,214.5C 193.5,214.5 194.5,214.5 195.5,214.5C 195.5,217.167 195.5,219.833 195.5,222.5 Z"/></g>
<g><path style="opacity:1" fill="#261c13" d="M 155.5,204.5 C 155.338,206.527 155.505,208.527 156,210.5C 157.807,214.756 159.307,219.089 160.5,223.5C 159.105,222.185 158.105,222.519 157.5,224.5C 153.269,217.645 152.102,210.311 154,202.5C 154.278,203.416 154.778,204.082 155.5,204.5 Z"/></g>
<g><path style="opacity:0.955" fill="#20150c" d="M 202.5,214.5 C 202.328,215.492 202.662,216.158 203.5,216.5C 201.723,218.539 200.057,220.706 198.5,223C 198.683,224.684 199.35,224.85 200.5,223.5C 201.167,223.5 201.5,223.833 201.5,224.5C 199.468,225.561 198.134,227.228 197.5,229.5C 196.818,228.757 196.151,228.091 195.5,227.5C 194.833,227.5 194.167,227.5 193.5,227.5C 193.821,225.952 194.821,225.285 196.5,225.5C 196.5,224.5 196.5,223.5 196.5,222.5C 197.319,219.695 197.819,216.695 198,213.5C 198.632,218.416 200.132,218.749 202.5,214.5 Z"/></g>
<g><path style="opacity:0.355" fill="#514639" d="M 268.5,197.5 C 265.615,203.957 262.615,210.457 259.5,217C 253.12,218.407 246.787,219.907 240.5,221.5C 246.357,218.826 252.524,216.826 259,215.5C 262.939,205.844 266.772,196.178 270.5,186.5C 271.75,186.423 272.583,185.756 273,184.5C 272.396,189.147 270.896,193.48 268.5,197.5 Z"/></g>
<g><path style="opacity:0.355" fill="#51463a" d="M 149.5,189.5 C 150.343,192.326 151.009,195.326 151.5,198.5C 153.452,200.126 154.786,202.126 155.5,204.5C 154.778,204.082 154.278,203.416 154,202.5C 152.102,210.311 153.269,217.645 157.5,224.5C 159.347,230.892 161.347,237.225 163.5,243.5C 163.5,244.167 163.5,244.833 163.5,245.5C 158.895,235.254 155.062,224.588 152,213.5C 150.913,211.068 150.413,211.402 150.5,214.5C 150.133,207.967 149.8,201.301 149.5,194.5C 149.5,192.833 149.5,191.167 149.5,189.5 Z"/></g>
<g><path style="opacity:1" fill="#261d14" d="M 268.5,197.5 C 268.5,198.833 268.5,200.167 268.5,201.5C 265.942,206.289 263.608,211.289 261.5,216.5C 263.766,217.314 266.1,217.814 268.5,218C 267.263,218.232 266.263,218.732 265.5,219.5C 265.167,219.5 264.833,219.5 264.5,219.5C 261.447,219.67 258.78,220.003 256.5,220.5C 248.946,221.462 241.946,223.796 235.5,227.5C 234.486,228.674 233.153,229.34 231.5,229.5C 230.305,229.678 229.138,230.011 228,230.5C 226.317,229.824 226.15,228.824 227.5,227.5C 231.416,224.71 235.749,222.71 240.5,221.5C 246.787,219.907 253.12,218.407 259.5,217C 262.615,210.457 265.615,203.957 268.5,197.5 Z"/></g>
<g><path style="opacity:0.741" fill="#30261d" d="M 112.5,212.5 C 115.414,221.568 118.748,230.568 122.5,239.5C 121.325,239.281 120.325,239.614 119.5,240.5C 121.076,242.979 122.076,245.646 122.5,248.5C 115.992,238.803 111.658,228.136 109.5,216.5C 108.557,209.856 108.391,203.189 109,196.5C 109.503,201.19 110.17,205.857 111,210.5C 111.278,211.416 111.778,212.082 112.5,212.5 Z"/></g>
<g><path style="opacity:0.639" fill="#2f241b" d="M 133.5,222.5 C 134.84,226.51 136.174,230.51 137.5,234.5C 136.518,233.859 135.518,233.193 134.5,232.5C 134.167,232.833 133.833,233.167 133.5,233.5C 135.699,236.889 137.032,240.556 137.5,244.5C 133.301,236.766 129.634,228.766 126.5,220.5C 123.234,210.095 121.901,199.428 122.5,188.5C 123.268,187.737 123.768,186.737 124,185.5C 123.675,196.733 125.008,207.733 128,218.5C 128.866,222.807 129.866,223.14 131,219.5C 131.852,220.571 132.685,221.571 133.5,222.5 Z"/></g>
<g><path style="opacity:0.2" fill="#4f4438" d="M 190.5,209.5 C 190.237,215.05 190.57,220.55 191.5,226C 190.961,228.482 189.961,230.648 188.5,232.5C 189.796,227.683 189.796,222.85 188.5,218C 188.741,214.938 189.408,212.105 190.5,209.5 Z"/></g>
<g><path style="opacity:0.333" fill="#4e4337" d="M 256.5,220.5 C 257.043,220.56 257.376,220.893 257.5,221.5C 255.981,225.871 253.981,229.871 251.5,233.5C 253.011,229.511 254.178,225.511 255,221.5C 248.468,223.4 241.968,225.4 235.5,227.5C 241.946,223.796 248.946,221.462 256.5,220.5 Z"/></g>
<g><path style="opacity:1" fill="#261c14" d="M 178.5,220.5 C 176.747,233.106 175.747,245.773 175.5,258.5C 174.504,258.414 173.671,258.748 173,259.5C 172.536,258.906 172.369,258.239 172.5,257.5C 172.5,252.167 172.5,246.833 172.5,241.5C 174.217,236.89 175.217,231.89 175.5,226.5C 174.098,225.158 174.431,224.324 176.5,224C 175.483,222.951 175.316,221.784 176,220.5C 176.77,221.598 177.603,221.598 178.5,220.5 Z"/></g>
<g><path style="opacity:0.941" fill="#c5b599" d="M 203.5,223.5 C 205.201,224.211 206.201,225.545 206.5,227.5C 204.545,228.323 202.545,228.49 200.5,228C 201.337,226.989 201.67,225.822 201.5,224.5C 202.167,224.167 202.833,223.833 203.5,223.5 Z"/></g>
<g><path style="opacity:1" fill="#2d241b" d="M 150.5,215.5 C 152.812,223.397 155.145,231.397 157.5,239.5C 156.21,237.208 154.543,235.208 152.5,233.5C 151.359,230.746 150.025,228.079 148.5,225.5C 147.366,222.63 146.7,219.63 146.5,216.5C 147.091,218.903 148.258,220.236 150,220.5C 150.494,218.866 150.66,217.199 150.5,215.5 Z"/></g>
<g><path style="opacity:0.947" fill="#382c21" d="M 201.5,224.5 C 201.67,225.822 201.337,226.989 200.5,228C 202.545,228.49 204.545,228.323 206.5,227.5C 208.213,225.805 210.213,224.972 212.5,225C 208.265,229.077 203.265,231.577 197.5,232.5C 196.652,231.375 195.652,231.375 194.5,232.5C 195.038,230.883 195.371,229.216 195.5,227.5C 196.151,228.091 196.818,228.757 197.5,229.5C 198.134,227.228 199.468,225.561 201.5,224.5 Z"/></g>
<g><path style="opacity:0.584" fill="#3a2f24" d="M 256.5,220.5 C 258.78,220.003 261.447,219.67 264.5,219.5C 263.432,220.434 262.099,220.768 260.5,220.5C 258.214,228.398 254.881,235.732 250.5,242.5C 249.115,243.574 247.949,244.907 247,246.5C 246.517,245.552 246.351,244.552 246.5,243.5C 247.659,239.849 249.326,236.515 251.5,233.5C 253.981,229.871 255.981,225.871 257.5,221.5C 257.376,220.893 257.043,220.56 256.5,220.5 Z"/></g>
<g><path style="opacity:0.418" fill="#3f352a" d="M 277.5,223.5 C 275.933,228.961 273.6,233.961 270.5,238.5C 269.115,239.574 267.949,240.907 267,242.5C 266.833,242.167 266.667,241.833 266.5,241.5C 267.788,239.261 268.788,236.928 269.5,234.5C 272.645,229.946 275.145,224.946 277,219.5C 277.49,220.793 277.657,222.127 277.5,223.5 Z"/></g>
<g><path style="opacity:0.103" fill="#544a3e" d="M 100.5,241.5 C 100.167,242.5 99.5,243.167 98.5,243.5C 96.6817,239.192 94.8483,234.859 93,230.5C 92.2025,228.741 92.3691,227.074 93.5,225.5C 96.2198,230.658 98.5531,235.991 100.5,241.5 Z"/></g>
<g><path style="opacity:1" fill="#241a11" d="M 194.5,207.5 C 193.069,208.78 192.402,210.447 192.5,212.5C 190.952,216.43 191.285,220.097 193.5,223.5C 194.623,224.757 195.289,224.424 195.5,222.5C 195.833,222.5 196.167,222.5 196.5,222.5C 196.5,223.5 196.5,224.5 196.5,225.5C 194.821,225.285 193.821,225.952 193.5,227.5C 191.232,232.305 189.565,237.305 188.5,242.5C 187.522,242.189 186.855,241.522 186.5,240.5C 187.785,237.979 188.452,235.313 188.5,232.5C 189.961,230.648 190.961,228.482 191.5,226C 190.57,220.55 190.237,215.05 190.5,209.5C 191.675,208.026 192.675,206.36 193.5,204.5C 195.519,205.133 195.853,206.133 194.5,207.5 Z"/></g>
<g><path style="opacity:1" fill="#231a11" d="M 160.5,223.5 C 161.928,229.689 163.928,235.689 166.5,241.5C 165.5,242.167 164.5,242.833 163.5,243.5C 161.347,237.225 159.347,230.892 157.5,224.5C 158.105,222.519 159.105,222.185 160.5,223.5 Z"/></g>
<g><path style="opacity:1" fill="#392f25" d="M 227.5,227.5 C 226.15,228.824 226.317,229.824 228,230.5C 229.138,230.011 230.305,229.678 231.5,229.5C 230.694,230.728 229.694,231.728 228.5,232.5C 219.344,237.317 211.344,243.65 204.5,251.5C 203.833,251.5 203.5,251.833 203.5,252.5C 202.833,252.833 202.167,253.167 201.5,253.5C 203.725,249.765 206.558,246.432 210,243.5C 210.692,242.563 210.525,241.897 209.5,241.5C 210.11,240.609 210.443,239.609 210.5,238.5C 215.354,233.659 221.02,229.993 227.5,227.5 Z"/></g>
<g><path style="opacity:1" fill="#2a2017" d="M 137.5,234.5 C 140.207,237.247 141.873,240.58 142.5,244.5C 142.587,247.598 142.087,247.932 141,245.5C 140.667,245.833 140.333,246.167 140,246.5C 139.583,245.244 138.75,244.577 137.5,244.5C 137.032,240.556 135.699,236.889 133.5,233.5C 133.833,233.167 134.167,232.833 134.5,232.5C 135.518,233.193 136.518,233.859 137.5,234.5 Z"/></g>
<g><path style="opacity:0.09" fill="#55493c" d="M 193.5,227.5 C 194.167,227.5 194.833,227.5 195.5,227.5C 195.371,229.216 195.038,230.883 194.5,232.5C 192.221,238.06 190.221,243.726 188.5,249.5C 187.778,249.918 187.278,250.584 187,251.5C 187.005,248.464 187.505,245.464 188.5,242.5C 189.565,237.305 191.232,232.305 193.5,227.5 Z"/></g>
<g><path style="opacity:0.173" fill="#50463a" d="M 228.5,232.5 C 232.439,232.178 233.272,233.511 231,236.5C 227.258,240.747 223.092,244.414 218.5,247.5C 222.22,243.276 226.22,239.109 230.5,235C 229.181,234.805 227.847,234.972 226.5,235.5C 227.167,234.5 227.833,233.5 228.5,232.5 Z"/></g>
<g><path style="opacity:0.557" fill="#4a3f34" d="M 155.5,204.5 C 160.426,217.497 164.759,230.831 168.5,244.5C 167.599,243.71 166.932,242.71 166.5,241.5C 163.928,235.689 161.928,229.689 160.5,223.5C 159.307,219.089 157.807,214.756 156,210.5C 155.505,208.527 155.338,206.527 155.5,204.5 Z"/></g>
<g><path style="opacity:1" fill="#2a2118" d="M 152.5,233.5 C 154.543,235.208 156.21,237.208 157.5,239.5C 161.405,248.543 164.738,257.876 167.5,267.5C 166.108,265.727 164.941,263.727 164,261.5C 163.517,262.448 163.351,263.448 163.5,264.5C 159.607,254.354 155.941,244.021 152.5,233.5 Z"/></g>
<g><path style="opacity:1" fill="#271d15" d="M 166.5,241.5 C 166.932,242.71 167.599,243.71 168.5,244.5C 168.5,244.833 168.5,245.167 168.5,245.5C 168.464,248.821 169.131,251.988 170.5,255C 170.684,256.376 171.351,257.209 172.5,257.5C 172.369,258.239 172.536,258.906 173,259.5C 173.671,258.748 174.504,258.414 175.5,258.5C 175.5,259.833 175.5,261.167 175.5,262.5C 173.908,261.398 173.075,262.065 173,264.5C 172.667,263.167 172.333,261.833 172,260.5C 171.79,262.058 171.29,263.391 170.5,264.5C 168.875,259.285 167.208,253.951 165.5,248.5C 165.253,247.287 164.586,246.62 163.5,246.5C 163.5,246.167 163.5,245.833 163.5,245.5C 163.5,244.833 163.5,244.167 163.5,243.5C 164.5,242.833 165.5,242.167 166.5,241.5 Z"/></g>
<g><path style="opacity:0.427" fill="#5a4f41" d="M 173.5,221.5 C 173.5,221.833 173.5,222.167 173.5,222.5C 173.524,228.857 173.19,235.19 172.5,241.5C 172.5,246.833 172.5,252.167 172.5,257.5C 171.351,257.209 170.684,256.376 170.5,255C 169.131,251.988 168.464,248.821 168.5,245.5C 169.158,246.398 169.824,247.398 170.5,248.5C 171.371,239.337 172.371,230.337 173.5,221.5 Z"/></g>
<g><path style="opacity:1" fill="#20170e" d="M 197.5,232.5 C 195.572,236.285 194.238,240.285 193.5,244.5C 192.055,246.571 191.055,248.904 190.5,251.5C 189.5,251.167 188.833,250.5 188.5,249.5C 190.221,243.726 192.221,238.06 194.5,232.5C 195.652,231.375 196.652,231.375 197.5,232.5 Z"/></g>
<g><path style="opacity:0.557" fill="#483e32" d="M 148.5,225.5 C 150.025,228.079 151.359,230.746 152.5,233.5C 155.941,244.021 159.607,254.354 163.5,264.5C 164.667,269.656 166.667,274.489 169.5,279C 168.944,279.383 168.611,279.883 168.5,280.5C 160.668,262.678 154.001,244.345 148.5,225.5 Z"/></g>
<g><path style="opacity:1" fill="#261b13" d="M 218.5,247.5 C 218.5,248.167 218.167,248.5 217.5,248.5C 213.372,251.29 210.372,254.957 208.5,259.5C 207.067,260.953 205.4,261.787 203.5,262C 205.301,259.557 206.968,257.057 208.5,254.5C 214.065,249.024 219.398,243.358 224.5,237.5C 224.833,236.5 225.5,235.833 226.5,235.5C 227.847,234.972 229.181,234.805 230.5,235C 226.22,239.109 222.22,243.276 218.5,247.5 Z"/></g>
<g><path style="opacity:0.182" fill="#4f4438" d="M 224.5,237.5 C 219.398,243.358 214.065,249.024 208.5,254.5C 212.452,247.547 217.786,241.88 224.5,237.5 Z"/></g>
<g><path style="opacity:0.612" fill="#4c4236" d="M 250.5,242.5 C 247.01,250.641 242.343,257.975 236.5,264.5C 239.226,259.39 242.226,254.39 245.5,249.5C 245.333,249.167 245.167,248.833 245,248.5C 243.483,250.24 241.983,251.906 240.5,253.5C 242,249.827 244,246.494 246.5,243.5C 246.351,244.552 246.517,245.552 247,246.5C 247.949,244.907 249.115,243.574 250.5,242.5 Z"/></g>
<g><path style="opacity:0.541" fill="#43392e" d="M 127.5,262.5 C 126.206,261.71 125.039,260.71 124,259.5C 123.833,259.833 123.667,260.167 123.5,260.5C 125.22,263.202 126.887,265.868 128.5,268.5C 119.562,258.149 112.229,246.649 106.5,234C 107.648,232.274 108.815,232.441 110,234.5C 115.605,244.058 121.438,253.391 127.5,262.5 Z"/></g>
<g><path style="opacity:1" fill="#231910" d="M 122.5,239.5 C 124.274,246.383 127.608,252.383 132.5,257.5C 133.89,258.899 134.89,260.566 135.5,262.5C 138.059,267.073 141.059,271.406 144.5,275.5C 144.333,275.833 144.167,276.167 144,276.5C 142.629,274.959 141.129,273.625 139.5,272.5C 134.159,265.139 129.159,257.472 124.5,249.5C 124.043,248.702 123.376,248.369 122.5,248.5C 122.076,245.646 121.076,242.979 119.5,240.5C 120.325,239.614 121.325,239.281 122.5,239.5 Z"/></g>
<g><path style="opacity:0.173" fill="#564b40" d="M 271.5,257.5 C 271.672,256.508 271.338,255.842 270.5,255.5C 275.545,247.099 280.212,238.433 284.5,229.5C 285.167,228.167 285.833,228.167 286.5,229.5C 283.032,239.776 278.032,249.109 271.5,257.5 Z"/></g>
<g><path style="opacity:0.482" fill="#463c30" d="M 122.5,239.5 C 125.83,245.492 129.163,251.492 132.5,257.5C 127.608,252.383 124.274,246.383 122.5,239.5 Z"/></g>
<g><path style="opacity:1" fill="#33291f" d="M 137.5,244.5 C 138.75,244.577 139.583,245.244 140,246.5C 140.333,246.167 140.667,245.833 141,245.5C 142.087,247.932 142.587,247.598 142.5,244.5C 144.924,247.008 146.59,250.008 147.5,253.5C 146.624,253.369 145.957,253.702 145.5,254.5C 145.316,256.415 145.65,258.415 146.5,260.5C 142.491,255.823 139.491,250.489 137.5,244.5 Z"/></g>
<g><path style="opacity:0.885" fill="#1e140b" d="M 209.5,241.5 C 210.525,241.897 210.692,242.563 210,243.5C 206.558,246.432 203.725,249.765 201.5,253.5C 199.583,254.909 197.75,256.576 196,258.5C 199.029,251.835 203.529,246.169 209.5,241.5 Z"/></g>
<g><path style="opacity:0.208" fill="#51473b" d="M 217.5,248.5 C 214.871,252.463 211.871,256.129 208.5,259.5C 210.372,254.957 213.372,251.29 217.5,248.5 Z"/></g>
<g><path style="opacity:0.439" fill="#443a2f" d="M 269.5,234.5 C 268.788,236.928 267.788,239.261 266.5,241.5C 266.667,241.833 266.833,242.167 267,242.5C 267.949,240.907 269.115,239.574 270.5,238.5C 267.01,246.641 262.343,253.975 256.5,260.5C 254.35,262.76 252.183,265.093 250,267.5C 249.536,266.906 249.369,266.239 249.5,265.5C 256.419,255.329 263.086,244.995 269.5,234.5 Z"/></g>
<g><path style="opacity:1" fill="#2a2017" d="M 188.5,232.5 C 188.452,235.313 187.785,237.979 186.5,240.5C 186.855,241.522 187.522,242.189 188.5,242.5C 187.505,245.464 187.005,248.464 187,251.5C 187.278,250.584 187.778,249.918 188.5,249.5C 188.833,250.5 189.5,251.167 190.5,251.5C 189.841,254.455 189.508,257.455 189.5,260.5C 189.167,260.5 188.833,260.5 188.5,260.5C 188.307,256.551 187.807,256.551 187,260.5C 186.333,257.833 185.667,257.833 185,260.5C 184.617,259.944 184.117,259.611 183.5,259.5C 184.058,253.82 184.725,248.153 185.5,242.5C 185.723,238.838 186.723,235.505 188.5,232.5 Z"/></g>
<g><path style="opacity:0.365" fill="#54493d" d="M 193.5,244.5 C 192.453,250.02 191.12,255.354 189.5,260.5C 189.508,257.455 189.841,254.455 190.5,251.5C 191.055,248.904 192.055,246.571 193.5,244.5 Z"/></g>
<g><path style="opacity:0.557" fill="#42372c" d="M 210.5,238.5 C 210.443,239.609 210.11,240.609 209.5,241.5C 203.529,246.169 199.029,251.835 196,258.5C 197.75,256.576 199.583,254.909 201.5,253.5C 199.154,256.871 196.821,260.204 194.5,263.5C 194.649,262.448 194.483,261.448 194,260.5C 193.292,261.381 192.458,262.047 191.5,262.5C 195.909,253.036 202.242,245.036 210.5,238.5 Z"/></g>
<g><path style="opacity:0.106" fill="#544a3e" d="M 100.5,241.5 C 104.738,249.078 109.404,256.412 114.5,263.5C 114.672,264.492 114.338,265.158 113.5,265.5C 107.524,258.897 102.524,251.564 98.5,243.5C 99.5,243.167 100.167,242.5 100.5,241.5 Z"/></g>
<g><path style="opacity:0.141" fill="#52473a" d="M 204.5,251.5 C 205.5,251.5 206.5,251.5 207.5,251.5C 207.263,252.791 207.596,253.791 208.5,254.5C 206.968,257.057 205.301,259.557 203.5,262C 205.4,261.787 207.067,260.953 208.5,259.5C 205.82,263.537 203.154,267.537 200.5,271.5C 200.673,268.821 201.673,266.487 203.5,264.5C 202.645,263.707 201.811,264.04 201,265.5C 199.92,267.996 198.586,270.33 197,272.5C 197.437,270.243 197.937,267.91 198.5,265.5C 202.01,262.142 204.177,258.142 205,253.5C 204.617,254.056 204.117,254.389 203.5,254.5C 203.5,253.833 203.5,253.167 203.5,252.5C 204.167,252.5 204.5,252.167 204.5,251.5 Z"/></g>
<g><path style="opacity:1" fill="#2a2017" d="M 147.5,253.5 C 150.669,257.833 153.336,262.5 155.5,267.5C 156.343,270.516 157.843,273.183 160,275.5C 160.667,276.5 160.667,277.5 160,278.5C 155.97,272.98 151.803,267.647 147.5,262.5C 146.662,262.158 146.328,261.492 146.5,260.5C 145.65,258.415 145.316,256.415 145.5,254.5C 145.957,253.702 146.624,253.369 147.5,253.5 Z"/></g>
<g><path style="opacity:0.773" fill="#261c14" d="M 198.5,265.5 C 198.5,264.5 198.5,263.5 198.5,262.5C 199.383,259.296 201.05,256.629 203.5,254.5C 204.117,254.389 204.617,254.056 205,253.5C 204.177,258.142 202.01,262.142 198.5,265.5 Z"/></g>
<g><path style="opacity:0.27" fill="#51473c" d="M 270.5,255.5 C 271.338,255.842 271.672,256.508 271.5,257.5C 267.274,264.398 261.941,270.398 255.5,275.5C 254.662,275.158 254.328,274.492 254.5,273.5C 259.491,267.177 264.824,261.177 270.5,255.5 Z"/></g>
<g><path style="opacity:0.431" fill="#4c4136" d="M 122.5,248.5 C 123.376,248.369 124.043,248.702 124.5,249.5C 129.159,257.472 134.159,265.139 139.5,272.5C 132.362,265.562 126.695,257.562 122.5,248.5 Z"/></g>
<g><path style="opacity:1" fill="#241a11" d="M 175.5,262.5 C 175.156,268.098 175.822,273.432 177.5,278.5C 177.357,280.262 177.691,281.929 178.5,283.5C 177.767,284.087 176.767,284.087 175.5,283.5C 174.833,283.5 174.5,283.167 174.5,282.5C 172.221,276.715 170.887,270.715 170.5,264.5C 171.29,263.391 171.79,262.058 172,260.5C 172.333,261.833 172.667,263.167 173,264.5C 173.075,262.065 173.908,261.398 175.5,262.5 Z"/></g>
<g><path style="opacity:0.541" fill="#372c22" d="M 236.5,264.5 C 234.792,268.572 232.126,271.905 228.5,274.5C 232.233,267.369 236.233,260.369 240.5,253.5C 241.983,251.906 243.483,250.24 245,248.5C 245.167,248.833 245.333,249.167 245.5,249.5C 242.226,254.39 239.226,259.39 236.5,264.5 Z"/></g>
<g><path style="opacity:0.502" fill="#574b3e" d="M 163.5,246.5 C 164.586,246.62 165.253,247.287 165.5,248.5C 167.208,253.951 168.875,259.285 170.5,264.5C 170.887,270.715 172.221,276.715 174.5,282.5C 173.503,282.53 172.836,282.03 172.5,281C 170.48,277.427 169.147,273.594 168.5,269.5C 169.124,269.083 169.457,268.416 169.5,267.5C 167.9,260.37 165.9,253.37 163.5,246.5 Z"/></g>
<g><path style="opacity:0.094" fill="#554b40" d="M 114.5,263.5 C 119.473,269.14 124.806,274.473 130.5,279.5C 130.511,281.017 131.177,282.184 132.5,283C 132.272,283.399 131.938,283.565 131.5,283.5C 124.5,278.5 118.5,272.5 113.5,265.5C 114.338,265.158 114.672,264.492 114.5,263.5 Z"/></g>
<g><path style="opacity:1" fill="#231911" d="M 188.5,260.5 C 186.604,272.338 187.604,273.005 191.5,262.5C 192.458,262.047 193.292,261.381 194,260.5C 194.483,261.448 194.649,262.448 194.5,263.5C 190.021,267.8 187.688,273.133 187.5,279.5C 186.883,279.611 186.383,279.944 186,280.5C 186.03,277.639 185.197,275.305 183.5,273.5C 183.5,268.833 183.5,264.167 183.5,259.5C 184.117,259.611 184.617,259.944 185,260.5C 185.667,257.833 186.333,257.833 187,260.5C 187.807,256.551 188.307,256.551 188.5,260.5 Z"/></g>
<g><path style="opacity:0.253" fill="#564a3d" d="M 188.5,260.5 C 188.833,260.5 189.167,260.5 189.5,260.5C 189.131,262.993 189.797,263.66 191.5,262.5C 187.604,273.005 186.604,272.338 188.5,260.5 Z"/></g>
<g><path style="opacity:0.41" fill="#41372c" d="M 127.5,262.5 C 133.023,267.858 138.023,273.692 142.5,280C 142.333,280.5 142.167,281 142,281.5C 136.337,278.336 131.837,274.003 128.5,268.5C 126.887,265.868 125.22,263.202 123.5,260.5C 123.667,260.167 123.833,259.833 124,259.5C 125.039,260.71 126.206,261.71 127.5,262.5 Z"/></g>
<g><path style="opacity:0.361" fill="#483e32" d="M 147.5,262.5 C 151.803,267.647 155.97,272.98 160,278.5C 160.667,277.5 160.667,276.5 160,275.5C 157.843,273.183 156.343,270.516 155.5,267.5C 159.944,272.203 163.278,277.703 165.5,284C 165.15,285.257 164.483,285.591 163.5,285C 157.288,278.057 151.955,270.557 147.5,262.5 Z"/></g>
<g><path style="opacity:0.314" fill="#483e32" d="M 185.5,242.5 C 184.725,248.153 184.058,253.82 183.5,259.5C 183.5,264.167 183.5,268.833 183.5,273.5C 183.403,279.055 183.737,284.722 184.5,290.5C 183.698,289.048 183.198,287.382 183,285.5C 182.333,273.833 182.333,262.167 183,250.5C 183.279,247.543 184.113,244.877 185.5,242.5 Z"/></g>
<g><path style="opacity:1" fill="#21170e" d="M 183.5,273.5 C 185.197,275.305 186.03,277.639 186,280.5C 186.383,279.944 186.883,279.611 187.5,279.5C 187.423,283.215 187.756,286.881 188.5,290.5C 187.883,290.389 187.383,290.056 187,289.5C 186.667,290.833 186.333,292.167 186,293.5C 185.768,292.263 185.268,291.263 184.5,290.5C 183.737,284.722 183.403,279.055 183.5,273.5 Z"/></g>
<g><path style="opacity:0.361" fill="#493f34" d="M 256.5,260.5 C 253.963,265.217 250.796,269.551 247,273.5C 244.234,276.777 241.067,279.443 237.5,281.5C 236.761,281.631 236.094,281.464 235.5,281C 236.5,280 237.5,279 238.5,278C 238.272,277.601 237.938,277.435 237.5,277.5C 241.491,273.543 245.491,269.543 249.5,265.5C 249.369,266.239 249.536,266.906 250,267.5C 252.183,265.093 254.35,262.76 256.5,260.5 Z"/></g>
<g><path style="opacity:1" fill="#3a3026" d="M 198.5,262.5 C 198.5,263.5 198.5,264.5 198.5,265.5C 197.937,267.91 197.437,270.243 197,272.5C 198.586,270.33 199.92,267.996 201,265.5C 201.811,264.04 202.645,263.707 203.5,264.5C 201.673,266.487 200.673,268.821 200.5,271.5C 196.357,278.44 193.357,285.774 191.5,293.5C 191.663,291.143 191.497,288.81 191,286.5C 190.392,288.066 189.558,289.4 188.5,290.5C 187.756,286.881 187.423,283.215 187.5,279.5C 187.688,273.133 190.021,267.8 194.5,263.5C 193.013,267.145 191.513,270.812 190,274.5C 188.816,278.449 188.482,282.449 189,286.5C 191.153,280.225 193.153,273.892 195,267.5C 195.697,265.416 196.864,263.749 198.5,262.5 Z"/></g>
<g><path style="opacity:0.494" fill="#3e3429" d="M 240.5,253.5 C 236.233,260.369 232.233,267.369 228.5,274.5C 225.812,279.188 222.145,282.855 217.5,285.5C 216.761,285.631 216.094,285.464 215.5,285C 220.102,280.906 224.102,276.406 227.5,271.5C 231.346,265.138 235.679,259.138 240.5,253.5 Z"/></g>
<g><path style="opacity:0.278" fill="#4d4338" d="M 227.5,271.5 C 224.102,276.406 220.102,280.906 215.5,285C 216.094,285.464 216.761,285.631 217.5,285.5C 214.284,289.452 210.284,292.452 205.5,294.5C 204.479,293.998 204.312,293.332 205,292.5C 212.671,285.662 220.171,278.662 227.5,271.5 Z"/></g>
<g><path style="opacity:0.494" fill="#44392e" d="M 135.5,262.5 C 144.304,273.47 154.304,283.303 165.5,292C 165,292.5 164.5,293 164,293.5C 153.828,288.827 145.661,281.827 139.5,272.5C 141.129,273.625 142.629,274.959 144,276.5C 144.167,276.167 144.333,275.833 144.5,275.5C 141.059,271.406 138.059,267.073 135.5,262.5 Z"/></g>
<g><path style="opacity:1" fill="#241b12" d="M 167.5,267.5 C 168.338,267.842 168.672,268.508 168.5,269.5C 169.147,273.594 170.48,277.427 172.5,281C 172.836,282.03 173.503,282.53 174.5,282.5C 174.5,283.167 174.833,283.5 175.5,283.5C 175.543,287.893 175.709,292.226 176,296.5C 173.725,290.955 171.225,285.622 168.5,280.5C 168.611,279.883 168.944,279.383 169.5,279C 166.667,274.489 164.667,269.656 163.5,264.5C 163.351,263.448 163.517,262.448 164,261.5C 164.941,263.727 166.108,265.727 167.5,267.5 Z"/></g>
<g><path style="opacity:0.173" fill="#554a3f" d="M 254.5,273.5 C 254.328,274.492 254.662,275.158 255.5,275.5C 246.776,284.033 236.776,290.866 225.5,296C 223.553,296.991 221.553,297.325 219.5,297C 231.885,290.148 243.552,282.314 254.5,273.5 Z"/></g>
<g><path style="opacity:0.244" fill="#50463b" d="M 237.5,277.5 C 237.938,277.435 238.272,277.601 238.5,278C 237.5,279 236.5,280 235.5,281C 236.094,281.464 236.761,281.631 237.5,281.5C 233.674,285.671 229.174,289.004 224,291.5C 223.5,291.167 223,290.833 222.5,290.5C 227.304,285.933 232.304,281.599 237.5,277.5 Z"/></g>
<g><path style="opacity:0.361" fill="#4c4136" d="M 177.5,278.5 C 179.053,281.017 180.053,283.85 180.5,287C 179.352,288.726 178.185,288.559 177,286.5C 176.94,291.441 177.773,296.274 179.5,301C 179.167,301.833 178.833,302.667 178.5,303.5C 174.007,296.361 170.674,288.694 168.5,280.5C 171.225,285.622 173.725,290.955 176,296.5C 175.709,292.226 175.543,287.893 175.5,283.5C 176.767,284.087 177.767,284.087 178.5,283.5C 177.691,281.929 177.357,280.262 177.5,278.5 Z"/></g>
<g><path style="opacity:0.104" fill="#554b3f" d="M 130.5,279.5 C 142.88,289.695 156.546,297.862 171.5,304C 156.237,300.896 142.903,294.063 131.5,283.5C 131.938,283.565 132.272,283.399 132.5,283C 131.177,282.184 130.511,281.017 130.5,279.5 Z"/></g>
<g><path style="opacity:1" fill="#281e16" d="M 191.5,293.5 C 191.5,295.5 191.5,297.5 191.5,299.5C 191.75,302.214 191.917,304.881 192,307.5C 190.476,305.102 188.976,302.769 187.5,300.5C 185.32,297.619 184.32,294.286 184.5,290.5C 185.268,291.263 185.768,292.263 186,293.5C 186.333,292.167 186.667,290.833 187,289.5C 187.383,290.056 187.883,290.389 188.5,290.5C 189.558,289.4 190.392,288.066 191,286.5C 191.497,288.81 191.663,291.143 191.5,293.5 Z"/></g>
<g><path style="opacity:0.2" fill="#4f453a" d="M 191.5,299.5 C 193.301,304.071 194.801,308.737 196,313.5C 191.371,310.365 188.537,306.032 187.5,300.5C 188.976,302.769 190.476,305.102 192,307.5C 191.917,304.881 191.75,302.214 191.5,299.5 Z"/></g>
</svg>
