<?xml version="1.0" encoding="UTF-8"?>
<!DOCTYPE svg PUBLIC "-//W3C//DTD SVG 1.1//EN" "http://www.w3.org/Graphics/SVG/1.1/DTD/svg11.dtd">
<svg xmlns="http://www.w3.org/2000/svg" version="1.1" width="380px" height="380px" style="shape-rendering:geometricPrecision; text-rendering:geometricPrecision; image-rendering:optimizeQuality; fill-rule:evenodd; clip-rule:evenodd" xmlns:xlink="http://www.w3.org/1999/xlink">
<g><path style="opacity:1" fill="#e5e5e5" d="M 208.5,69.5 C 204.853,67.8688 201.186,66.2021 197.5,64.5C 193.305,66.2328 188.971,66.7328 184.5,66C 185.696,65.3457 185.696,64.8457 184.5,64.5C 182.491,66.0105 180.658,67.6771 179,69.5C 178.047,67.4078 176.714,67.0745 175,68.5C 174.226,70.9393 172.726,72.7727 170.5,74C 171.978,75.1931 173.312,75.6931 174.5,75.5C 168.182,75.4332 163.016,77.7665 159,82.5C 158.175,84.7008 158.675,86.5341 160.5,88C 159.354,88.6449 158.354,89.4783 157.5,90.5C 156.782,87.942 155.449,87.2753 153.5,88.5C 162.57,74.7738 174.903,65.1071 190.5,59.5C 197.176,61.8327 203.176,65.1661 208.5,69.5 Z"/></g>
<g><path style="opacity:1" fill="#f6f6f6" d="M 208.5,69.5 C 210.167,70.5 211.5,71.8333 212.5,73.5C 214.833,76.5 217.5,79.1667 220.5,81.5C 233.358,94.524 242.691,109.857 248.5,127.5C 247.5,127.5 246.5,127.5 245.5,127.5C 245.347,131.114 245.847,133.781 247,135.5C 246,134.167 245,134.167 244,135.5C 243.338,133.187 242.838,130.854 242.5,128.5C 238.73,128.803 235.063,129.303 231.5,130C 232.833,129 234.167,128 235.5,127C 234.167,125.667 234.167,124.333 235.5,123C 231.528,119.804 230.528,116.137 232.5,112C 231.421,111.044 230.255,110.211 229,109.5C 227.622,114.444 227.122,119.444 227.5,124.5C 225.619,122.735 225.286,120.568 226.5,118C 224.841,109.344 224.508,109.344 225.5,118C 225.056,119.762 224.556,119.595 224,117.5C 223.748,119.931 224.248,122.265 225.5,124.5C 224.873,125.417 224.539,126.417 224.5,127.5C 220.882,121.262 217.549,114.928 214.5,108.5C 214.573,106.973 213.906,105.973 212.5,105.5C 206.693,95.5853 198.86,87.5853 189,81.5C 178.254,88.9121 169.588,98.2454 163,109.5C 159.076,119.872 154.576,129.872 149.5,139.5C 148.778,139.082 148.278,138.416 148,137.5C 147.026,139.878 146.359,139.544 146,136.5C 145.346,137.696 144.846,137.696 144.5,136.5C 146.197,135.636 147.363,134.303 148,132.5C 148.787,128.821 149.621,125.154 150.5,121.5C 152.102,120.45 152.935,121.117 153,123.5C 152.893,119.519 154.06,116.019 156.5,113C 156.056,111.238 155.556,111.405 155,113.5C 154.667,111.833 154.333,110.167 154,108.5C 151.449,113.84 148.116,114.507 144,110.5C 143.064,112.708 141.398,114.042 139,114.5C 137.505,116.11 137.339,117.776 138.5,119.5C 138.062,120.506 137.396,120.506 136.5,119.5C 135.682,121.108 135.015,122.775 134.5,124.5C 135.833,126.5 135.833,128.5 134.5,130.5C 136.579,132.157 136.746,134.157 135,136.5C 134.572,131.502 133.739,131.335 132.5,136C 133.421,140.651 133.421,145.151 132.5,149.5C 130.851,150.988 128.851,151.988 126.5,152.5C 125.902,153.795 125.402,155.128 125,156.5C 124.722,155.584 124.222,154.918 123.5,154.5C 125.838,149.472 127.172,144.139 127.5,138.5C 133.044,120.074 141.711,103.408 153.5,88.5C 155.449,87.2753 156.782,87.942 157.5,90.5C 158.354,89.4783 159.354,88.6449 160.5,88C 158.675,86.5341 158.175,84.7008 159,82.5C 163.016,77.7665 168.182,75.4332 174.5,75.5C 173.312,75.6931 171.978,75.1931 170.5,74C 172.726,72.7727 174.226,70.9393 175,68.5C 176.714,67.0745 178.047,67.4078 179,69.5C 180.658,67.6771 182.491,66.0105 184.5,64.5C 185.696,64.8457 185.696,65.3457 184.5,66C 188.971,66.7328 193.305,66.2328 197.5,64.5C 201.186,66.2021 204.853,67.8688 208.5,69.5 Z"/></g>
<g><path style="opacity:0.11" fill="#bbbbbc" d="M 212.5,73.5 C 216.167,75.1667 218.833,77.8333 220.5,81.5C 217.5,79.1667 214.833,76.5 212.5,73.5 Z"/></g>
<g><path style="opacity:1" fill="#25242c" d="M 212.5,105.5 C 212.427,107.027 213.094,108.027 214.5,108.5C 217.549,114.928 220.882,121.262 224.5,127.5C 227.37,136.943 230.536,146.276 234,155.5C 235.156,160.122 235.99,164.789 236.5,169.5C 236.41,172.152 237.076,174.485 238.5,176.5C 238.366,178.292 238.699,179.958 239.5,181.5C 239.532,186.391 240.199,191.057 241.5,195.5C 241.831,207.568 241.164,219.568 239.5,231.5C 234.713,257.615 219.713,274.615 194.5,282.5C 191.813,282.664 189.146,282.497 186.5,282C 187.056,281.617 187.389,281.117 187.5,280.5C 190.535,275.237 192.702,269.57 194,263.5C 195.199,250.336 194.365,237.336 191.5,224.5C 190.1,223.9 189.1,222.9 188.5,221.5C 187.99,217.44 187.156,213.44 186,209.5C 185.34,207.676 184.173,206.343 182.5,205.5C 183.167,204.833 183.833,204.167 184.5,203.5C 188.706,196.498 188.373,189.664 183.5,183C 189.152,175.276 188.819,167.942 182.5,161C 185.967,159.308 187.3,156.475 186.5,152.5C 186.44,147.599 185.44,142.932 183.5,138.5C 183.152,136.287 182.319,134.287 181,132.5C 180.764,134.119 179.931,135.119 178.5,135.5C 178.573,133.973 177.906,132.973 176.5,132.5C 174.761,129.757 172.427,127.757 169.5,126.5C 168.637,125.537 167.97,125.537 167.5,126.5C 172.568,134.573 175.234,143.239 175.5,152.5C 174.817,152.137 174.15,151.804 173.5,151.5C 172.032,150.194 170.699,148.694 169.5,147C 168.668,146.312 168.002,146.479 167.5,147.5C 169.038,150.148 170.372,152.815 171.5,155.5C 173.355,162.262 175.188,168.929 177,175.5C 174.96,173.63 173.127,171.63 171.5,169.5C 171.217,168.711 170.717,168.044 170,167.5C 169.8,169.32 168.966,170.653 167.5,171.5C 166.957,171.56 166.624,171.893 166.5,172.5C 170.429,180.297 173.762,188.297 176.5,196.5C 176.631,197.239 176.464,197.906 176,198.5C 170.677,193.454 170.177,194.121 174.5,200.5C 175.218,202.137 175.384,203.803 175,205.5C 172.47,202.937 170.303,200.103 168.5,197C 167.668,196.312 167.002,196.479 166.5,197.5C 169.84,203.176 172.34,209.176 174,215.5C 175.332,217.66 176.832,219.66 178.5,221.5C 180.391,224.172 183.058,225.172 186.5,224.5C 186.205,226.735 186.539,228.735 187.5,230.5C 189.114,243.583 188.781,256.583 186.5,269.5C 183.97,272.688 181.304,275.855 178.5,279C 177.552,279.483 176.552,279.649 175.5,279.5C 160.769,272.436 150.103,261.436 143.5,246.5C 142.769,241.562 141.435,236.895 139.5,232.5C 138.691,220.518 138.358,208.518 138.5,196.5C 138.5,196.167 138.5,195.833 138.5,195.5C 140.078,190.417 140.745,185.084 140.5,179.5C 141.756,173.551 142.756,167.551 143.5,161.5C 145.41,158.548 146.41,155.214 146.5,151.5C 147.5,147.5 148.5,143.5 149.5,139.5C 154.576,129.872 159.076,119.872 163,109.5C 169.588,98.2454 178.254,88.9121 189,81.5C 198.86,87.5853 206.693,95.5853 212.5,105.5 Z"/></g>
<g><path style="opacity:1" fill="#7f7f82" d="M 212.5,105.5 C 213.906,105.973 214.573,106.973 214.5,108.5C 213.094,108.027 212.427,107.027 212.5,105.5 Z"/></g>
<g><path style="opacity:1" fill="#f9f9f9" d="M 149.5,139.5 C 148.5,143.5 147.5,147.5 146.5,151.5C 144.723,154.505 143.723,157.838 143.5,161.5C 142.756,167.551 141.756,173.551 140.5,179.5C 139.043,184.598 138.376,189.931 138.5,195.5C 138.5,195.833 138.5,196.167 138.5,196.5C 137.341,206.658 137.175,216.992 138,227.5C 138.198,229.382 138.698,231.048 139.5,232.5C 139.61,237.622 140.944,242.288 143.5,246.5C 150.103,261.436 160.769,272.436 175.5,279.5C 177.789,280.058 179.789,281.224 181.5,283C 186.02,283.814 190.354,283.647 194.5,282.5C 219.713,274.615 234.713,257.615 239.5,231.5C 241.14,228.512 241.974,225.179 242,221.5C 242.824,212.657 242.657,203.99 241.5,195.5C 241.638,190.586 240.972,185.919 239.5,181.5C 238.699,179.958 238.366,178.292 238.5,176.5C 238.59,173.848 237.924,171.515 236.5,169.5C 235.99,164.789 235.156,160.122 234,155.5C 230.536,146.276 227.37,136.943 224.5,127.5C 224.539,126.417 224.873,125.417 225.5,124.5C 224.248,122.265 223.748,119.931 224,117.5C 224.556,119.595 225.056,119.762 225.5,118C 224.508,109.344 224.841,109.344 226.5,118C 225.286,120.568 225.619,122.735 227.5,124.5C 227.122,119.444 227.622,114.444 229,109.5C 230.255,110.211 231.421,111.044 232.5,112C 230.528,116.137 231.528,119.804 235.5,123C 234.167,124.333 234.167,125.667 235.5,127C 234.167,128 232.833,129 231.5,130C 235.063,129.303 238.73,128.803 242.5,128.5C 242.838,130.854 243.338,133.187 244,135.5C 245,134.167 246,134.167 247,135.5C 245.847,133.781 245.347,131.114 245.5,127.5C 246.5,127.5 247.5,127.5 248.5,127.5C 251.266,132.117 253.266,137.117 254.5,142.5C 255.927,150.098 257.927,157.431 260.5,164.5C 261.012,172.592 262.178,180.592 264,188.5C 264.5,204.163 264.667,219.83 264.5,235.5C 264.58,238.781 263.913,241.781 262.5,244.5C 261.167,247.5 259.833,250.5 258.5,253.5C 258.539,252.244 258.039,251.244 257,250.5C 255.872,252.345 255.372,254.345 255.5,256.5C 254.178,256.67 253.011,256.337 252,255.5C 250.693,256.772 249.193,257.772 247.5,258.5C 246.926,261.177 246.259,263.843 245.5,266.5C 244.5,267 243.5,267.5 242.5,268C 243.138,269.707 243.138,271.54 242.5,273.5C 237.701,275.485 234.868,279.152 234,284.5C 233.333,283.833 232.667,283.167 232,282.5C 230.999,285.173 229.499,287.507 227.5,289.5C 227.709,290.086 228.043,290.586 228.5,291C 227.167,291.667 225.833,292.333 224.5,293C 224.619,294.145 224.952,295.312 225.5,296.5C 218.912,300.027 212.246,303.36 205.5,306.5C 195.709,307.817 185.709,307.817 175.5,306.5C 162.516,304.413 151.516,298.747 142.5,289.5C 141.193,288.198 141.193,286.865 142.5,285.5C 138.284,281.735 135.617,277.069 134.5,271.5C 132.878,269.561 131.044,269.228 129,270.5C 126.388,267.611 124.555,264.278 123.5,260.5C 123.043,259.702 122.376,259.369 121.5,259.5C 120.204,253.95 118.537,248.617 116.5,243.5C 115.549,242.081 115.216,240.415 115.5,238.5C 114.587,225.177 114.42,211.843 115,198.5C 117.231,184.843 119.398,171.176 121.5,157.5C 122.167,156.5 122.833,155.5 123.5,154.5C 124.222,154.918 124.722,155.584 125,156.5C 125.402,155.128 125.902,153.795 126.5,152.5C 128.851,151.988 130.851,150.988 132.5,149.5C 133.421,145.151 133.421,140.651 132.5,136C 133.739,131.335 134.572,131.502 135,136.5C 136.746,134.157 136.579,132.157 134.5,130.5C 135.833,128.5 135.833,126.5 134.5,124.5C 135.015,122.775 135.682,121.108 136.5,119.5C 137.396,120.506 138.062,120.506 138.5,119.5C 137.339,117.776 137.505,116.11 139,114.5C 141.398,114.042 143.064,112.708 144,110.5C 148.116,114.507 151.449,113.84 154,108.5C 154.333,110.167 154.667,111.833 155,113.5C 155.556,111.405 156.056,111.238 156.5,113C 154.06,116.019 152.893,119.519 153,123.5C 152.935,121.117 152.102,120.45 150.5,121.5C 149.621,125.154 148.787,128.821 148,132.5C 147.363,134.303 146.197,135.636 144.5,136.5C 144.846,137.696 145.346,137.696 146,136.5C 146.359,139.544 147.026,139.878 148,137.5C 148.278,138.416 148.778,139.082 149.5,139.5 Z"/></g>
<g><path style="opacity:1" fill="#8f8f92" d="M 187.5,109.5 C 185.823,118.648 185.157,127.982 185.5,137.5C 184.672,131.681 184.172,125.681 184,119.5C 182.931,116.792 181.764,114.125 180.5,111.5C 181.274,110.289 182.107,110.289 183,111.5C 183.973,113.392 184.64,115.392 185,117.5C 186.061,114.834 186.894,112.167 187.5,109.5 Z"/></g>
<g><path style="opacity:1" fill="#f3f3f3" d="M 193.5,114.5 C 194.117,114.389 194.617,114.056 195,113.5C 195.434,120.512 195.934,127.512 196.5,134.5C 195.574,139.598 192.574,141.765 187.5,141C 186.177,140.184 185.511,139.017 185.5,137.5C 185.157,127.982 185.823,118.648 187.5,109.5C 187.004,103.175 188.171,102.841 191,108.5C 191.333,110.5 191.667,112.5 192,114.5C 192.69,115.738 193.19,115.738 193.5,114.5 Z"/></g>
<g><path style="opacity:0.984" fill="#bbbabd" d="M 196.5,134.5 C 195.934,127.512 195.434,120.512 195,113.5C 194.617,114.056 194.117,114.389 193.5,114.5C 193.821,112.952 194.821,112.285 196.5,112.5C 197.198,120.007 197.198,127.341 196.5,134.5 Z"/></g>
<g><path style="opacity:1" fill="#89898c" d="M 169.5,126.5 C 172.427,127.757 174.761,129.757 176.5,132.5C 175.732,133.263 175.232,134.263 175,135.5C 172.653,132.806 170.82,129.806 169.5,126.5 Z"/></g>
<g><path style="opacity:1" fill="#a2a2a4" d="M 183.5,138.5 C 181.435,138.047 179.768,137.047 178.5,135.5C 179.931,135.119 180.764,134.119 181,132.5C 182.319,134.287 183.152,136.287 183.5,138.5 Z"/></g>
<g><path style="opacity:1" fill="#969699" d="M 201.5,138.5 C 200.122,142.42 198.788,142.42 197.5,138.5C 198.878,134.58 200.212,134.58 201.5,138.5 Z"/></g>
<g><path style="opacity:1" fill="#efefef" d="M 169.5,126.5 C 170.82,129.806 172.653,132.806 175,135.5C 175.232,134.263 175.732,133.263 176.5,132.5C 177.906,132.973 178.573,133.973 178.5,135.5C 179.768,137.047 181.435,138.047 183.5,138.5C 185.44,142.932 186.44,147.599 186.5,152.5C 187.3,156.475 185.967,159.308 182.5,161C 188.819,167.942 189.152,175.276 183.5,183C 188.373,189.664 188.706,196.498 184.5,203.5C 181.059,202.104 178.392,199.77 176.5,196.5C 173.762,188.297 170.429,180.297 166.5,172.5C 166.624,171.893 166.957,171.56 167.5,171.5C 175.872,183.78 176.872,183.446 170.5,170.5C 170.624,169.893 170.957,169.56 171.5,169.5C 173.127,171.63 174.96,173.63 177,175.5C 175.188,168.929 173.355,162.262 171.5,155.5C 171.989,154.005 172.655,152.671 173.5,151.5C 174.15,151.804 174.817,152.137 175.5,152.5C 175.234,143.239 172.568,134.573 167.5,126.5C 167.97,125.537 168.637,125.537 169.5,126.5 Z"/></g>
<g><path style="opacity:0.588" fill="#cacacb" d="M 127.5,138.5 C 127.172,144.139 125.838,149.472 123.5,154.5C 122.833,155.5 122.167,156.5 121.5,157.5C 122.728,150.822 124.728,144.488 127.5,138.5 Z"/></g>
<g><path style="opacity:1" fill="#414045" d="M 207.5,143.5 C 207.357,145.262 207.691,146.929 208.5,148.5C 209.391,149.59 210.391,149.59 211.5,148.5C 210.945,150.393 211.612,152.06 213.5,153.5C 210.944,154.543 208.777,156.21 207,158.5C 206.956,156.24 207.789,154.24 209.5,152.5C 206.873,152.85 204.54,154.35 202.5,157C 201.833,157.667 201.167,157.667 200.5,157C 204.604,153.288 206.938,148.788 207.5,143.5 Z"/></g>
<g><path style="opacity:1" fill="#aaaaac" d="M 173.5,151.5 C 172.655,152.671 171.989,154.005 171.5,155.5C 170.372,152.815 169.038,150.148 167.5,147.5C 168.002,146.479 168.668,146.312 169.5,147C 170.699,148.694 172.032,150.194 173.5,151.5 Z"/></g>
<g><path style="opacity:1" fill="#8c8c8f" d="M 193.5,149.5 C 193.342,152.902 193.676,156.236 194.5,159.5C 193.883,159.389 193.383,159.056 193,158.5C 192.195,155.304 192.362,152.304 193.5,149.5 Z"/></g>
<g><path style="opacity:0.282" fill="#bcbcbd" d="M 254.5,142.5 C 257.484,149.467 259.484,156.801 260.5,164.5C 257.927,157.431 255.927,150.098 254.5,142.5 Z"/></g>
<g><path style="opacity:1" fill="#858588" d="M 146.5,151.5 C 146.41,155.214 145.41,158.548 143.5,161.5C 143.723,157.838 144.723,154.505 146.5,151.5 Z"/></g>
<g><path style="opacity:1" fill="#8b8b8e" d="M 194.5,159.5 C 195.802,160.807 197.135,160.807 198.5,159.5C 199.665,160.86 199.332,161.86 197.5,162.5C 196.1,161.9 195.1,160.9 194.5,159.5 Z"/></g>
<g><path style="opacity:1" fill="#f0f1f0" d="M 207.5,143.5 C 206.938,148.788 204.604,153.288 200.5,157C 201.167,157.667 201.833,157.667 202.5,157C 204.54,154.35 206.873,152.85 209.5,152.5C 207.789,154.24 206.956,156.24 207,158.5C 208.777,156.21 210.944,154.543 213.5,153.5C 210.909,159.272 208.909,165.272 207.5,171.5C 206.623,173.728 205.29,175.728 203.5,177.5C 201.074,179.38 198.408,180.713 195.5,181.5C 192.535,174.82 193.201,168.486 197.5,162.5C 199.332,161.86 199.665,160.86 198.5,159.5C 197.135,160.807 195.802,160.807 194.5,159.5C 193.676,156.236 193.342,152.902 193.5,149.5C 194.384,145.626 195.718,141.96 197.5,138.5C 198.788,142.42 200.122,142.42 201.5,138.5C 203.816,134.411 206.982,131.078 211,128.5C 210.602,130.631 209.602,132.631 208,134.5C 207.502,137.482 207.335,140.482 207.5,143.5 Z"/></g>
<g><path style="opacity:1" fill="#444348" d="M 207.5,171.5 C 209.635,173.369 212.302,174.036 215.5,173.5C 215.737,174.791 215.404,175.791 214.5,176.5C 214.103,175.475 213.437,175.308 212.5,176C 210.667,177.833 208.833,179.667 207,181.5C 207.419,179.497 208.253,177.497 209.5,175.5C 209.167,175.167 208.833,174.833 208.5,174.5C 207.451,176.216 206.118,177.549 204.5,178.5C 203.833,178.5 203.5,178.167 203.5,177.5C 205.29,175.728 206.623,173.728 207.5,171.5 Z"/></g>
<g><path style="opacity:1" fill="#6b6a6e" d="M 236.5,169.5 C 237.924,171.515 238.59,173.848 238.5,176.5C 237.076,174.485 236.41,172.152 236.5,169.5 Z"/></g>
<g><path style="opacity:1" fill="#4e4e53" d="M 171.5,169.5 C 170.957,169.56 170.624,169.893 170.5,170.5C 176.872,183.446 175.872,183.78 167.5,171.5C 168.966,170.653 169.8,169.32 170,167.5C 170.717,168.044 171.217,168.711 171.5,169.5 Z"/></g>
<g><path style="opacity:0.588" fill="#c7c7c8" d="M 121.5,157.5 C 119.398,171.176 117.231,184.843 115,198.5C 114.42,211.843 114.587,225.177 115.5,238.5C 113.884,231.563 112.884,224.396 112.5,217C 113.217,204.79 114.384,192.623 116,180.5C 117.027,172.51 118.86,164.843 121.5,157.5 Z"/></g>
<g><path style="opacity:1" fill="#a1a1a3" d="M 203.5,177.5 C 203.5,178.167 203.833,178.5 204.5,178.5C 202.525,180.137 200.525,181.804 198.5,183.5C 197.5,182.833 196.5,182.167 195.5,181.5C 198.408,180.713 201.074,179.38 203.5,177.5 Z"/></g>
<g><path style="opacity:1" fill="#f2f2f1" d="M 214.5,176.5 C 211.975,182.74 209.641,189.074 207.5,195.5C 204.833,198.833 201.833,201.833 198.5,204.5C 197.425,205.562 196.425,205.562 195.5,204.5C 192.482,197.022 193.482,190.022 198.5,183.5C 200.525,181.804 202.525,180.137 204.5,178.5C 206.118,177.549 207.451,176.216 208.5,174.5C 208.833,174.833 209.167,175.167 209.5,175.5C 208.253,177.497 207.419,179.497 207,181.5C 208.833,179.667 210.667,177.833 212.5,176C 213.437,175.308 214.103,175.475 214.5,176.5 Z"/></g>
<g><path style="opacity:1" fill="#aeaeb0" d="M 239.5,181.5 C 240.972,185.919 241.638,190.586 241.5,195.5C 240.199,191.057 239.532,186.391 239.5,181.5 Z"/></g>
<g><path style="opacity:1" fill="#646468" d="M 140.5,179.5 C 140.745,185.084 140.078,190.417 138.5,195.5C 138.376,189.931 139.043,184.598 140.5,179.5 Z"/></g>
<g><path style="opacity:1" fill="#5a5a5d" d="M 207.5,195.5 C 207.721,198.097 208.221,198.097 209,195.5C 209.278,196.416 209.778,197.082 210.5,197.5C 206.694,199.91 203.027,202.577 199.5,205.5C 199.5,204.833 199.167,204.5 198.5,204.5C 201.833,201.833 204.833,198.833 207.5,195.5 Z"/></g>
<g><path style="opacity:1" fill="#adadaf" d="M 176.5,196.5 C 178.392,199.77 181.059,202.104 184.5,203.5C 183.833,204.167 183.167,204.833 182.5,205.5C 180.37,203.873 178.37,202.04 176.5,200C 175.563,199.308 174.897,199.475 174.5,200.5C 170.177,194.121 170.677,193.454 176,198.5C 176.464,197.906 176.631,197.239 176.5,196.5 Z"/></g>
<g><path style="opacity:1" fill="#acacaf" d="M 241.5,195.5 C 242.657,203.99 242.824,212.657 242,221.5C 241.974,225.179 241.14,228.512 239.5,231.5C 241.164,219.568 241.831,207.568 241.5,195.5 Z"/></g>
<g><path style="opacity:0.69" fill="#d1d1d2" d="M 260.5,164.5 C 262.843,171.869 264.343,179.536 265,187.5C 265.437,197.337 265.937,207.17 266.5,217C 266.381,223.372 265.714,229.539 264.5,235.5C 264.667,219.83 264.5,204.163 264,188.5C 262.178,180.592 261.012,172.592 260.5,164.5 Z"/></g>
<g><path style="opacity:1" fill="#efefef" d="M 174.5,200.5 C 174.897,199.475 175.563,199.308 176.5,200C 178.37,202.04 180.37,203.873 182.5,205.5C 184.173,206.343 185.34,207.676 186,209.5C 187.156,213.44 187.99,217.44 188.5,221.5C 185.207,224.048 181.873,224.048 178.5,221.5C 176.832,219.66 175.332,217.66 174,215.5C 172.34,209.176 169.84,203.176 166.5,197.5C 167.002,196.479 167.668,196.312 168.5,197C 170.303,200.103 172.47,202.937 175,205.5C 175.384,203.803 175.218,202.137 174.5,200.5 Z"/></g>
<g><path style="opacity:1" fill="#eeeeee" d="M 210.5,197.5 C 211.043,197.56 211.376,197.893 211.5,198.5C 210.253,200.497 209.419,202.497 209,204.5C 210.167,203.333 211.333,202.167 212.5,201C 213.332,200.312 213.998,200.479 214.5,201.5C 211.901,209.205 207.901,216.038 202.5,222C 199.347,224.898 196.18,225.065 193,222.5C 191.932,215.529 194.099,209.862 199.5,205.5C 203.027,202.577 206.694,199.91 210.5,197.5 Z"/></g>
<g><path style="opacity:1" fill="#89898c" d="M 178.5,221.5 C 181.873,224.048 185.207,224.048 188.5,221.5C 189.1,222.9 190.1,223.9 191.5,224.5C 190.167,224.5 188.833,224.5 187.5,224.5C 187.5,226.5 187.5,228.5 187.5,230.5C 186.539,228.735 186.205,226.735 186.5,224.5C 183.058,225.172 180.391,224.172 178.5,221.5 Z"/></g>
<g><path style="opacity:1" fill="#969699" d="M 138.5,196.5 C 138.358,208.518 138.691,220.518 139.5,232.5C 138.698,231.048 138.198,229.382 138,227.5C 137.175,216.992 137.341,206.658 138.5,196.5 Z"/></g>
<g><path style="opacity:1" fill="#9a9a9d" d="M 139.5,232.5 C 141.435,236.895 142.769,241.562 143.5,246.5C 140.944,242.288 139.61,237.622 139.5,232.5 Z"/></g>
<g><path style="opacity:0.11" fill="#bebebf" d="M 116.5,243.5 C 118.537,248.617 120.204,253.95 121.5,259.5C 118.654,254.624 116.987,249.291 116.5,243.5 Z"/></g>
<g><path style="opacity:0.11" fill="#bebebf" d="M 262.5,244.5 C 261.943,249.165 260.61,253.498 258.5,257.5C 258.5,256.167 258.5,254.833 258.5,253.5C 259.833,250.5 261.167,247.5 262.5,244.5 Z"/></g>
<g><path style="opacity:1" fill="#f0f0f0" d="M 258.5,253.5 C 258.5,254.833 258.5,256.167 258.5,257.5C 253.261,274.003 243.261,286.669 228.5,295.5C 227.391,295.557 226.391,295.89 225.5,296.5C 224.952,295.312 224.619,294.145 224.5,293C 225.833,292.333 227.167,291.667 228.5,291C 228.043,290.586 227.709,290.086 227.5,289.5C 229.499,287.507 230.999,285.173 232,282.5C 232.667,283.167 233.333,283.833 234,284.5C 234.868,279.152 237.701,275.485 242.5,273.5C 243.138,271.54 243.138,269.707 242.5,268C 243.5,267.5 244.5,267 245.5,266.5C 246.259,263.843 246.926,261.177 247.5,258.5C 249.193,257.772 250.693,256.772 252,255.5C 253.011,256.337 254.178,256.67 255.5,256.5C 255.372,254.345 255.872,252.345 257,250.5C 258.039,251.244 258.539,252.244 258.5,253.5 Z"/></g>
<g><path style="opacity:1" fill="#ebebeb" d="M 191.5,224.5 C 194.365,237.336 195.199,250.336 194,263.5C 192.702,269.57 190.535,275.237 187.5,280.5C 185.32,281.855 183.32,281.689 181.5,280C 182.641,278.383 183.474,276.55 184,274.5C 185.205,273.929 186.372,273.262 187.5,272.5C 186.873,271.583 186.539,270.583 186.5,269.5C 188.781,256.583 189.114,243.583 187.5,230.5C 187.5,228.5 187.5,226.5 187.5,224.5C 188.833,224.5 190.167,224.5 191.5,224.5 Z"/></g>
<g><path style="opacity:1" fill="#e6e6e6" d="M 121.5,259.5 C 122.376,259.369 123.043,259.702 123.5,260.5C 124.555,264.278 126.388,267.611 129,270.5C 131.044,269.228 132.878,269.561 134.5,271.5C 135.617,277.069 138.284,281.735 142.5,285.5C 141.193,286.865 141.193,288.198 142.5,289.5C 132.569,281.667 125.569,271.667 121.5,259.5 Z"/></g>
<g><path style="opacity:1" fill="#d6d6d7" d="M 186.5,269.5 C 186.539,270.583 186.873,271.583 187.5,272.5C 186.372,273.262 185.205,273.929 184,274.5C 183.474,276.55 182.641,278.383 181.5,280C 183.32,281.689 185.32,281.855 187.5,280.5C 187.389,281.117 187.056,281.617 186.5,282C 189.146,282.497 191.813,282.664 194.5,282.5C 190.354,283.647 186.02,283.814 181.5,283C 179.789,281.224 177.789,280.058 175.5,279.5C 176.552,279.649 177.552,279.483 178.5,279C 181.304,275.855 183.97,272.688 186.5,269.5 Z"/></g>
<g><path style="opacity:0.282" fill="#c0c0c1" d="M 228.5,295.5 C 222.046,301.559 214.379,305.226 205.5,306.5C 212.246,303.36 218.912,300.027 225.5,296.5C 226.391,295.89 227.391,295.557 228.5,295.5 Z"/></g>
<g><path style="opacity:0.447" fill="#c5c5c6" d="M 205.5,306.5 C 200.577,307.954 195.411,308.621 190,308.5C 184.91,308.656 180.077,307.99 175.5,306.5C 185.709,307.817 195.709,307.817 205.5,306.5 Z"/></g>
</svg>
